<svg xmlns="http://www.w3.org/2000/svg" viewBox="0 0 36 36"><defs><style>.cls-1{fill:none;}.cls-2{fill:#fff;}.cls-3{fill:#f93e54;}</style></defs><title>资源 12</title><g id="图层_2" data-name="图层 2"><g id="图层_1-2" data-name="图层 1"><path class="cls-1" d="M32.16,2.24a3,3,0,0,1,1,.64A3,3,0,0,0,32.16,2.24Z"/><path class="cls-1" d="M3.08,2.72a3,3,0,0,1,.75-.48A3,3,0,0,0,3.08,2.72Z"/><path class="cls-1" d="M31,2a3,3,0,0,1,1.16.24A3,3,0,0,0,31,2H5a3,3,0,0,0-1.16.24A3,3,0,0,1,5,2Z"/><path class="cls-1" d="M2,5H2a3,3,0,0,1,.06-.6A3,3,0,0,0,2,5Z"/><path class="cls-1" d="M34,5h0a3,3,0,0,0-.06-.6A3,3,0,0,1,34,5Z"/><path class="cls-2" d="M33.12,2.88a3,3,0,0,0-1-.64A3,3,0,0,0,31,2H5a2.86,2.86,0,0,0-1.92.72,3,3,0,0,0-.57.61A3,3,0,0,0,2,5V31a3,3,0,0,0,3,3H31a3,3,0,0,0,3-3V5a3,3,0,0,0-.88-2.12Zm-8.26,17.4a1.87,1.87,0,0,1-.14.22l-6.07,8a.86.86,0,0,1-.65.32.83.83,0,0,1-.63-.29l-6.09-8a2.71,2.71,0,0,1-.15-.24,8.35,8.35,0,1,1,13.73,0Z"/><circle class="cls-2" cx="18" cy="15.53" r="2.98"/><path class="cls-3" d="M31,0H5A5,5,0,0,0,0,5V31a5,5,0,0,0,5,5H31a5,5,0,0,0,5-5V5A5,5,0,0,0,31,0Zm3,5V31a3,3,0,0,1-3,3H5a3,3,0,0,1-3-3V5H2a3,3,0,0,1,.51-1.67,3,3,0,0,1,.57-.61A2.86,2.86,0,0,1,5,2H31a3,3,0,0,1,1.16.24A3,3,0,0,1,33.94,4.4,3,3,0,0,1,34,5Z"/><path class="cls-3" d="M18,7.18a8.35,8.35,0,0,0-6.87,13.09,2.71,2.71,0,0,0,.15.24l6.09,8a.83.83,0,0,0,.63.29.86.86,0,0,0,.65-.32l6.07-8a1.87,1.87,0,0,0,.14-.22A8.35,8.35,0,0,0,18,7.18Zm0,11.33a3,3,0,1,1,3-3A3,3,0,0,1,18,18.51Z"/></g></g></svg>