<svg xmlns="http://www.w3.org/2000/svg" viewBox="0 0 36 36"><defs><style>.cls-1{fill:none;}.cls-2{fill:#fff;}.cls-3{fill:#00a0e9;}.cls-4{fill:#3fa9f5;}</style></defs><title>资源 17</title><g id="图层_2" data-name="图层 2"><g id="图层_1-2" data-name="图层 1"><path class="cls-1" d="M32.67,33.49a3,3,0,0,0,.81-.81A3,3,0,0,1,32.67,33.49Z"/><path class="cls-1" d="M2.51,32.67a3,3,0,0,0,.81.81A3,3,0,0,1,2.51,32.67Z"/><path class="cls-1" d="M34,31a3,3,0,0,1-.24,1.16A3,3,0,0,0,34,31Z"/><path class="cls-1" d="M2.24,32.16A3,3,0,0,1,2,31,3,3,0,0,0,2.24,32.16Z"/><path class="cls-2" d="M31,2H5A3,3,0,0,0,2,5V31a3,3,0,0,0,.51,1.67,3,3,0,0,0,.81.81A3,3,0,0,0,5,34H31a3,3,0,0,0,1.67-.51,3,3,0,0,0,.81-.81A3,3,0,0,0,34,31V5A3,3,0,0,0,31,2Zm-2.31,9.28-3.88,2.34a.67.67,0,0,1-.29.08H19.7a.16.16,0,0,0-.16.16h0v2h5a.16.16,0,0,1,.16.16v4.7a.16.16,0,0,1-.16.16H19.7a.16.16,0,0,0-.16.16v8a.37.37,0,0,1-.12.26l-1,.8a.21.21,0,0,1-.25,0l-1-.8a.37.37,0,0,1-.12-.26v-8a.16.16,0,0,0-.16-.16H11.48a.67.67,0,0,1-.29-.08L7.31,18.49a.09.09,0,0,1,0-.16L11.19,16a.67.67,0,0,1,.29-.08H17v-2a.16.16,0,0,0-.16-.16H11.48a.16.16,0,0,1-.16-.16V8.85a.16.16,0,0,1,.16-.16h5.39A.16.16,0,0,0,17,8.54V6.46a.26.26,0,0,1,.15-.22l1-.41a.43.43,0,0,1,.29,0l1,.41a.26.26,0,0,1,.15.22V8.54a.16.16,0,0,0,.16.16h4.82a.67.67,0,0,1,.29.08l3.88,2.34A.09.09,0,0,1,28.69,11.28Z"/><path class="cls-3" d="M31,0H5A5,5,0,0,0,0,5V31a5,5,0,0,0,5,5H31a5,5,0,0,0,5-5V5A5,5,0,0,0,31,0Zm3,31a3,3,0,0,1-.51,1.67,3,3,0,0,1-.81.81A3,3,0,0,1,31,34H5a3,3,0,0,1-1.67-.51,3,3,0,0,1-.81-.81A3,3,0,0,1,2,31V5A3,3,0,0,1,5,2H31a3,3,0,0,1,3,3Z"/><path class="cls-4" d="M24.81,8.78a.67.67,0,0,0-.29-.08H19.7a.16.16,0,0,1-.16-.16V6.46a.26.26,0,0,0-.15-.22l-1-.41a.43.43,0,0,0-.29,0l-1,.41a.26.26,0,0,0-.15.22V8.54a.16.16,0,0,1-.16.16H11.48a.16.16,0,0,0-.16.16v4.7a.16.16,0,0,0,.16.16h5.39a.16.16,0,0,1,.16.16v2H11.48a.67.67,0,0,0-.29.08L7.31,18.33a.09.09,0,0,0,0,.16l3.88,2.34a.67.67,0,0,0,.29.08h5.39a.16.16,0,0,1,.16.16v8a.37.37,0,0,0,.12.26l1,.8a.21.21,0,0,0,.25,0l1-.8a.37.37,0,0,0,.12-.26v-8a.16.16,0,0,1,.16-.16h4.82a.16.16,0,0,0,.16-.16v-4.7a.16.16,0,0,0-.16-.16h-5v-2h0a.16.16,0,0,1,.16-.16h4.82a.67.67,0,0,0,.29-.08l3.88-2.34a.09.09,0,0,0,0-.16Z"/></g></g></svg>