<svg xmlns="http://www.w3.org/2000/svg" viewBox="0 0 36 36"><defs><style>.cls-1{fill:none;}.cls-2{fill:#fff;}.cls-3{fill:#ff6d0c;}</style></defs><title>资源 15</title><g id="图层_2" data-name="图层 2"><g id="图层_1-2" data-name="图层 1"><path class="cls-1" d="M34,31a3,3,0,0,1-.24,1.16A3,3,0,0,0,34,31Z"/><path class="cls-1" d="M32.16,33.76A3,3,0,0,1,31,34,3,3,0,0,0,32.16,33.76Z"/><path class="cls-1" d="M2.24,32.16A3,3,0,0,1,2,31,3,3,0,0,0,2.24,32.16Z"/><path class="cls-1" d="M32.67,33.49a3,3,0,0,0,.81-.81A3,3,0,0,1,32.67,33.49Z"/><path class="cls-1" d="M31,2a3,3,0,0,1,1.16.24A3,3,0,0,0,31,2Z"/><path class="cls-1" d="M2.51,32.67a3,3,0,0,0,.81.81A3,3,0,0,1,2.51,32.67Z"/><path class="cls-1" d="M33.49,3.33a3,3,0,0,0-.81-.81A3,3,0,0,1,33.49,3.33Z"/><path class="cls-2" d="M32.67,2.51A3,3,0,0,0,31,2H5A3,3,0,0,0,2,5V31a3,3,0,0,0,.51,1.67,3,3,0,0,0,.81.81A3,3,0,0,0,5,34H31a3,3,0,0,0,1.67-.51,3,3,0,0,0,.81-.81A3,3,0,0,0,34,31V5a3,3,0,0,0-.51-1.67A3,3,0,0,0,32.67,2.51ZM28.13,27.77H7.87V12.57h4.34V8.23h1.45v4.34h8.68V8.23h1.45v4.34h4.34Z"/><rect class="cls-2" x="11.85" y="16.91" width="3.62" height="6.51"/><path class="cls-2" d="M9.32,26.32H26.68V14H9.32Zm9.4-10.85H25.6v1.45H18.72Zm0,4H25.6v1.45H18.72Zm0,4H25.6v1.45H18.72Zm-8.32-8h6.51v9.4H10.4Z"/><path class="cls-3" d="M31,0H5A5,5,0,0,0,0,5V31a5,5,0,0,0,5,5H31a5,5,0,0,0,5-5V5A5,5,0,0,0,31,0Zm3,31a3,3,0,0,1-.51,1.67,3,3,0,0,1-.81.81A3,3,0,0,1,31,34H5a3,3,0,0,1-1.67-.51,3,3,0,0,1-.81-.81A3,3,0,0,1,2,31V5A3,3,0,0,1,5,2H31a3,3,0,0,1,1.67.51,3,3,0,0,1,.81.81A3,3,0,0,1,34,5Z"/><path class="cls-3" d="M23.79,8.23H22.34v4.34H13.66V8.23H12.21v4.34H7.87V27.77H28.13V12.57H23.79ZM26.68,14v12.3H9.32V14Z"/><rect class="cls-3" x="18.72" y="23.43" width="6.87" height="1.45"/><rect class="cls-3" x="18.72" y="19.45" width="6.87" height="1.45"/><rect class="cls-3" x="18.72" y="15.47" width="6.87" height="1.45"/><path class="cls-3" d="M16.91,15.47H10.4v9.4h6.51Zm-1.45,8H11.85V16.91h3.62Z"/></g></g></svg>