<svg xmlns="http://www.w3.org/2000/svg" viewBox="0 0 36 36"><defs><style>.cls-1{fill:#fff;}.cls-2{fill:#00a0e9;}.cls-3{fill:#3fa9f5;}</style></defs><title>资源 20</title><g id="图层_2" data-name="图层 2"><g id="图层_1-2" data-name="图层 1"><path class="cls-1" d="M10,24.37l3.29,2.77a0,0,0,0,0,0,0l1.36-1.62-3.31-2.79Z"/><polygon class="cls-1" points="10.67 20.32 17.04 25.67 26.01 14.18 19.64 8.83 10.67 20.32"/><path class="cls-1" d="M31,2H5A3,3,0,0,0,2,5V31a3,3,0,0,0,3,3H31a3,3,0,0,0,3-3V5A3,3,0,0,0,31,2ZM25.94,20.78v-3h1.38v7.49H25.94v-3H21.51l-3.4,4.35a1.34,1.34,0,0,1-1.93.21l-.42-.35-1.39,1.66a1.37,1.37,0,0,1-1.94.17L9.11,25.47a1.43,1.43,0,0,1-.17-2l1.36-1.61-.49-.42a1.47,1.47,0,0,1-.2-2l9-11.49a1.34,1.34,0,0,1,1.93-.21l6.37,5.35a1.47,1.47,0,0,1,.2,2l-4.45,5.71Z"/><path class="cls-2" d="M31,0H5A5,5,0,0,0,0,5V31a5,5,0,0,0,5,5H31a5,5,0,0,0,5-5V5A5,5,0,0,0,31,0Zm3,31a3,3,0,0,1-3,3H5a3,3,0,0,1-3-3V5A3,3,0,0,1,5,2H31a3,3,0,0,1,3,3Z"/><path class="cls-3" d="M26.88,13.07,20.51,7.72a1.34,1.34,0,0,0-1.93.21l-9,11.49a1.47,1.47,0,0,0,.2,2l.49.42L8.94,23.46a1.43,1.43,0,0,0,.17,2l3.31,2.78a1.37,1.37,0,0,0,1.94-.17l1.39-1.66.42.35a1.34,1.34,0,0,0,1.93-.21l3.4-4.35h4.43v3h1.38V17.76H25.94v3H22.63l4.45-5.71A1.47,1.47,0,0,0,26.88,13.07ZM13.32,27.14a0,0,0,0,1,0,0L10,24.37l1.38-1.63,3.31,2.79ZM17,25.67l-6.37-5.35,9-11.49L26,14.18Z"/></g></g></svg>