<svg xmlns="http://www.w3.org/2000/svg" viewBox="0 0 36 36"><defs><style>.cls-1{fill:none;}.cls-2{fill:#fff;}.cls-3{fill:#00a0e9;}.cls-4{fill:#3fa9f5;}</style></defs><title>资源 19</title><g id="图层_2" data-name="图层 2"><g id="图层_1-2" data-name="图层 1"><path class="cls-1" d="M31,34H5a3,3,0,0,1-3-3H2a3,3,0,0,0,3,3H31a3,3,0,0,0,3-3h0A3,3,0,0,1,31,34Z"/><path class="cls-2" d="M17.95,13.52a5.67,5.67,0,1,0,5.67,5.67A5.67,5.67,0,0,0,17.95,13.52Zm0,10.44a4.77,4.77,0,1,1,4.77-4.77A4.77,4.77,0,0,1,17.95,24Z"/><path class="cls-2" d="M17.95,15.39a3.8,3.8,0,1,0,3.8,3.8A3.8,3.8,0,0,0,17.95,15.39Zm.28,6.7v-.93A1.93,1.93,0,0,0,20,19.23v0h1A3,3,0,0,1,18.22,22.09Z"/><path class="cls-2" d="M31,2H5A3,3,0,0,0,2,5V31a3,3,0,0,0,3,3H31a3,3,0,0,0,3-3V5A3,3,0,0,0,31,2ZM17.95,27.33a8.14,8.14,0,1,1,8.14-8.14A8.14,8.14,0,0,1,17.95,27.33ZM26.66,9.84c0,.37-1.78,2.23-2.88,2.23s-3.67-1.7-5.83-1.7-4.51,1.7-5.53,1.7-3-1.9-3.06-2.23,0-1.18,0-1.18h3.34v.22H23.25V8.67h3.41Z"/><path class="cls-3" d="M31,0H5A5,5,0,0,0,0,5V31a5,5,0,0,0,5,5H31a5,5,0,0,0,5-5V5A5,5,0,0,0,31,0Zm3,31h0a3,3,0,0,1-3,3H5a3,3,0,0,1-3-3H2V5A3,3,0,0,1,5,2H31a3,3,0,0,1,3,3Z"/><path class="cls-4" d="M17.95,11.06a8.14,8.14,0,1,0,8.14,8.14A8.14,8.14,0,0,0,17.95,11.06Zm0,13.81a5.67,5.67,0,1,1,5.67-5.67A5.67,5.67,0,0,1,17.95,24.87Z"/><path class="cls-4" d="M17.95,14.43a4.77,4.77,0,1,0,4.77,4.77A4.77,4.77,0,0,0,17.95,14.43Zm0,8.57a3.8,3.8,0,1,1,3.8-3.8A3.8,3.8,0,0,1,17.95,23Z"/><path class="cls-4" d="M20,19.23a1.93,1.93,0,0,1-1.76,1.93v.93A3,3,0,0,0,21,19.2H20Z"/><path class="cls-4" d="M23.25,8.87H12.7V8.67H9.35s0,.84,0,1.18,2,2.23,3.06,2.23,3.25-1.7,5.53-1.7,4.73,1.7,5.83,1.7,2.88-1.87,2.88-2.23V8.67H23.25Z"/></g></g></svg>