<svg xmlns="http://www.w3.org/2000/svg" viewBox="0 0 36 36"><defs><style>.cls-1{fill:none;}.cls-2{fill:#fff;}.cls-3{fill:#bc09ff;}</style></defs><title>资源 16</title><g id="图层_2" data-name="图层 2"><g id="图层_1-2" data-name="图层 1"><path class="cls-1" d="M31.6,2.06a3,3,0,0,1,1.52.82A3,3,0,0,0,31.6,2.06Z"/><path class="cls-1" d="M31,2h0a3,3,0,0,1,.6.06A3,3,0,0,0,31,2Z"/><path class="cls-1" d="M31,34a3,3,0,0,0,.6-.06A3,3,0,0,1,31,34Z"/><path class="cls-1" d="M2.72,32.92a3,3,0,0,0,.41.4A3,3,0,0,1,2.72,32.92Z"/><path class="cls-1" d="M34,5V31a3,3,0,0,1-2.4,2.94A3,3,0,0,0,34,31V5a3,3,0,0,0-.88-2.12A3,3,0,0,1,34,5Z"/><path class="cls-2" d="M34,31V5a3,3,0,0,0-3-3H5A3,3,0,0,0,2,5V31a3,3,0,0,0,.72,1.92,3,3,0,0,0,.41.4A3,3,0,0,0,5,34H31a3,3,0,0,0,.6-.06A3,3,0,0,0,34,31Zm-7.14-9.24A29,29,0,0,1,24,24.38l-.47.39c-.79.65-1.63,1.32-2.46,2l-1.1.85a2.1,2.1,0,0,1-2.58,0l-1.11-.86c-.84-.65-1.67-1.32-2.45-2l-.48-.4a29.09,29.09,0,0,1-2.86-2.62,8.81,8.81,0,0,1-2.26-6.28c0-3.87,2.84-7,6.33-7a6,6,0,0,1,4.11,1.68,6,6,0,0,1,4.11-1.68c3.49,0,6.34,3.15,6.34,7A8.8,8.8,0,0,1,26.86,21.76Z"/><path class="cls-2" d="M22.79,9.76a4.7,4.7,0,0,0-3.61,1.74l-.5.59-.5-.59a4.7,4.7,0,0,0-3.61-1.74c-2.77,0-5,2.56-5,5.71a7.59,7.59,0,0,0,1.93,5.42,28,28,0,0,0,2.72,2.49l.48.4c.77.63,1.59,1.29,2.42,1.93l1.1.85a.8.8,0,0,0,1,0l1.1-.85q1.23-1,2.43-1.94l.46-.39a27.87,27.87,0,0,0,2.72-2.49,7.58,7.58,0,0,0,1.93-5.42C27.82,12.32,25.56,9.76,22.79,9.76Zm.45,10.33H14.12a.65.65,0,0,1,0-1.31h7.81l-.82-1a.65.65,0,0,1,1-.85l1.63,1.9a.63.63,0,0,1,.13.45.62.62,0,0,1,0,.11A.65.65,0,0,1,23.23,20.09Z"/><path class="cls-3" d="M31,0H5A5,5,0,0,0,0,5V31a5,5,0,0,0,5,5H31a5,5,0,0,0,5-5V5A5,5,0,0,0,31,0Zm3,31a3,3,0,0,1-2.4,2.94A3,3,0,0,1,31,34H5a3,3,0,0,1-1.88-.68,3,3,0,0,1-.41-.4A3,3,0,0,1,2,31V5A3,3,0,0,1,5,2H31a3,3,0,0,1,3,3Z"/><path class="cls-3" d="M22.79,8.45a6,6,0,0,0-4.11,1.68,6,6,0,0,0-4.11-1.68c-3.49,0-6.33,3.15-6.33,7a8.81,8.81,0,0,0,2.26,6.28,29.09,29.09,0,0,0,2.86,2.62l.48.4c.78.64,1.61,1.31,2.45,2l1.11.86a2.1,2.1,0,0,0,2.58,0l1.1-.85c.83-.65,1.67-1.32,2.46-2l.47-.39a29,29,0,0,0,2.86-2.63,8.8,8.8,0,0,0,2.26-6.28C29.12,11.6,26.28,8.45,22.79,8.45Zm3.1,12.43a27.87,27.87,0,0,1-2.72,2.49l-.46.39q-1.2,1-2.43,1.94l-1.1.85a.8.8,0,0,1-1,0l-1.1-.85c-.83-.64-1.65-1.3-2.42-1.93l-.48-.4a28,28,0,0,1-2.72-2.49,7.59,7.59,0,0,1-1.93-5.42c0-3.15,2.26-5.71,5-5.71a4.7,4.7,0,0,1,3.61,1.74l.5.59.5-.59a4.7,4.7,0,0,1,3.61-1.74c2.77,0,5,2.56,5,5.71A7.58,7.58,0,0,1,25.88,20.89Z"/><path class="cls-3" d="M23.73,18.88,22.1,17a.65.65,0,0,0-1,.85l.82,1H14.12a.65.65,0,0,0,0,1.31h9.11a.65.65,0,0,0,.65-.65.62.62,0,0,0,0-.11A.63.63,0,0,0,23.73,18.88Z"/></g></g></svg>