<?xml version="1.0" standalone="no"?><!DOCTYPE svg PUBLIC "-//W3C//DTD SVG 1.1//EN" "http://www.w3.org/Graphics/SVG/1.1/DTD/svg11.dtd"><svg t="1519890264577" class="icon" style="" viewBox="0 0 1024 1024" version="1.1" xmlns="http://www.w3.org/2000/svg" p-id="6623" xmlns:xlink="http://www.w3.org/1999/xlink" width="200" height="200"><defs><style type="text/css"></style></defs><path d="M288 384V319.904C288 302.304 302.208 288 320 288c17.664 0 32 14.496 32 31.904V384h64.096c17.6 0 31.904 14.208 31.904 32 0 17.664-14.496 32-31.904 32H352v64.096c0 17.6-14.208 31.904-32 31.904-17.664 0-32-14.496-32-31.904V448H223.904A31.872 31.872 0 0 1 192 416c0-17.664 14.496-32 31.904-32H288zM64 192.16C64 156.736 92.8 128 127.712 128H896.32C931.488 128 960 156.704 960 192.16v639.68C960 867.264 931.2 896 896.288 896H127.68C92.512 896 64 867.296 64 831.84V192.16z m64 31.584v576.512c0 17.184 14.336 31.744 32 31.744h704c17.696 0 32-14.208 32-31.744V223.744C896 206.56 881.664 192 864 192H160c-17.696 0-32 14.208-32 31.744zM576 640c0-17.664 14.016-32 32.096-32h159.808A31.968 31.968 0 0 1 800 640c0 17.664-14.016 32-32.096 32h-159.808A31.968 31.968 0 0 1 576 640z m-235.648 75.648a31.904 31.904 0 0 1-0.16-45.12L702.528 308.192a31.808 31.808 0 0 1 45.12 0.16 31.904 31.904 0 0 1 0.16 45.12L385.472 715.808a31.808 31.808 0 0 1-45.12-0.16z"  p-id="6624"></path></svg>