<?xml version="1.0" standalone="no"?><!DOCTYPE svg PUBLIC "-//W3C//DTD SVG 1.1//EN" "http://www.w3.org/Graphics/SVG/1.1/DTD/svg11.dtd"><svg t="1519892649782" class="icon" style="" viewBox="0 0 1024 1024" version="1.1" xmlns="http://www.w3.org/2000/svg" p-id="1937" xmlns:xlink="http://www.w3.org/1999/xlink" width="200" height="200"><defs><style type="text/css"></style></defs><path d="M982.961231 1022.345846H41.038769a39.384615 39.384615 0 0 1-39.384615-39.384615V134.537846a39.384615 39.384615 0 0 1 39.384615-39.384615h78.769231a39.384615 39.384615 0 0 1 0 78.769231h-39.384615v769.654153h863.15323V173.922462h-39.384615a39.384615 39.384615 0 0 1 0-78.769231h78.769231a39.384615 39.384615 0 0 1 39.384615 39.384615v848.423385a39.384615 39.384615 0 0 1-39.384615 39.384615z"  p-id="1938"></path><path d="M275.692308 0a39.384615 39.384615 0 0 0-39.384616 39.384615v157.538462a39.384615 39.384615 0 0 0 78.769231 0v-157.538462a39.384615 39.384615 0 0 0-39.384615-39.384615zM748.307692 0a39.384615 39.384615 0 0 0-39.384615 39.384615v157.538462a39.384615 39.384615 0 0 0 78.769231 0v-157.538462a39.384615 39.384615 0 0 0-39.384616-39.384615zM590.690462 95.153231h-157.538462a39.384615 39.384615 0 0 0 0 78.769231h157.538462a39.384615 39.384615 0 0 0 0-78.769231zM275.692308 385.654154h-78.769231a39.384615 39.384615 0 0 0 0 78.769231h78.769231a39.384615 39.384615 0 0 0 0-78.769231zM275.613538 543.192615h-78.76923a39.384615 39.384615 0 0 0 0 78.769231h78.76923a39.384615 39.384615 0 0 0 0-78.769231zM827.076923 385.654154h-78.769231a39.384615 39.384615 0 0 0 0 78.769231h78.769231a39.384615 39.384615 0 0 0 0-78.769231zM827.076923 543.192615h-78.769231a39.384615 39.384615 0 0 0 0 78.769231h78.769231a39.384615 39.384615 0 0 0 0-78.769231zM551.305846 385.654154h-78.769231a39.384615 39.384615 0 0 0 0 78.769231h78.769231a39.384615 39.384615 0 0 0 0-78.769231zM551.384615 543.192615H472.615385a39.384615 39.384615 0 0 0 0 78.769231h78.76923a39.384615 39.384615 0 0 0 0-78.769231zM275.613538 700.731077h-78.76923a39.384615 39.384615 0 0 0 0 78.769231h78.76923a39.384615 39.384615 0 0 0 0-78.769231zM551.305846 700.731077h-78.769231a39.384615 39.384615 0 0 0 0 78.769231h78.769231a39.384615 39.384615 0 0 0 0-78.769231z"  p-id="1939"></path></svg>