<?xml version="1.0" standalone="no"?><!DOCTYPE svg PUBLIC "-//W3C//DTD SVG 1.1//EN" "http://www.w3.org/Graphics/SVG/1.1/DTD/svg11.dtd"><svg t="1520402975208" class="icon" style="" viewBox="0 0 1024 1024" version="1.1" xmlns="http://www.w3.org/2000/svg" p-id="3067" xmlns:xlink="http://www.w3.org/1999/xlink" width="200" height="200"><defs><style type="text/css"></style></defs><path d="M824.102 337.242h-623.276l311.638 345.721 311.637-345.721zM824.102 337.242z" p-id="3068"></path><path d="M853.317 74.298h-681.701c-53.568 0-97.388 43.823-97.388 97.388v681.701c0 53.561 43.823 97.388 97.388 97.388h681.701c53.561 0 97.388-43.828 97.388-97.388v-681.701c0-53.568-43.828-97.388-97.388-97.388v0zM902.012 853.388c0 29.219-19.474 48.694-48.694 48.694h-681.701c-29.219 0-48.694-19.475-48.694-48.694v-681.701c0-29.219 19.475-48.694 48.694-48.694h681.701c29.22 0 48.694 19.475 48.694 48.694v681.701zM902.012 853.388z" p-id="3069"></path></svg>