<?xml version="1.0" standalone="no"?><!DOCTYPE svg PUBLIC "-//W3C//DTD SVG 1.1//EN" "http://www.w3.org/Graphics/SVG/1.1/DTD/svg11.dtd"><svg t="1516589952471" class="icon" style="" viewBox="0 0 1024 1024" version="1.1" xmlns="http://www.w3.org/2000/svg" p-id="1311" xmlns:xlink="http://www.w3.org/1999/xlink" width="200" height="200"><defs><style type="text/css"></style></defs><path d="M969.75656358 921.72720668l-97.03511324 22.96162369c-50.06905625 11.87080548-52.56304121 10.66973632-64.71221317-37.38576126l-9.88550849-36.41501501 201.52109724-47.76441497 6.49425319 24.06378185c15.3086904 60.47738285 21.13741007 60.91118091-36.38251553 74.55250463l0 0L969.75656358 921.72720668zM670.06569547 399.55304477c-12.14917195-48.03995487-10.49593405-50.2584013 39.51801287-62.13062077l97.06196096-22.97575385c50.01394828-11.87363206 52.53619351-10.6273459 61.5498681 24.97659358l117.99872243 434.25587207L784.70001028 821.41529187 670.06569547 399.55304477 670.06569547 399.55304477 670.06569547 399.55304477zM393.10754078 951.11101886c-10.38006629 0-29.68902633-10.72767089-29.68902634-29.68902632L363.41851444 149.53982529l237.50372679 0 0 771.88216862c0 21.52599248-18.35234251 29.68902633-29.68761234 29.68902634L393.10754078 951.11101886zM363.41851444 60.47698686c0-14.35066165 12.00221734-29.68761235 29.68902634-29.68761235l178.12708948 0c17.53844178 0 29.68761235 10.36452355 29.68761233 29.68761235l0 59.37663869L363.41851444 119.85362555 363.41851444 60.47698686zM36.85336183 951.11101886c-10.52278172 0-29.68761235-9.9307255-29.68761235-29.68902632l0-59.37522472 267.18992653 0 0 59.37522472c0 19.45450066-18.43853735 29.68902633-29.68761234 29.68902632L36.85336183 951.11101886zM7.16574948 772.98393076l267.18992653 0 0 59.37522472-267.18992653-1.13041845L7.16574948 772.98393076zM274.35567739 357.35452711l0 385.94179131L7.16574948 743.29631705 7.16574948 357.35452711 274.35567739 357.35452711zM7.16574948 238.60407633c0-18.22234464 10.92831949-29.68761235 29.68761235-29.68761236l207.81470184 0c17.91854445 0 29.68761235 7.49467374 29.68761234 29.68761236l0 89.06283844L7.16574948 327.66691477 7.16574948 238.60407633z" p-id="1312"></path></svg>