<?xml version="1.0" standalone="no"?><!DOCTYPE svg PUBLIC "-//W3C//DTD SVG 1.1//EN" "http://www.w3.org/Graphics/SVG/1.1/DTD/svg11.dtd"><svg t="1513748746114" class="icon" style="" viewBox="0 0 1024 1024" version="1.1" xmlns="http://www.w3.org/2000/svg" p-id="6676" xmlns:xlink="http://www.w3.org/1999/xlink" width="32" height="32"><defs><style type="text/css"></style></defs><path d="M266.679 816.762H757.32V268.166h-61.318c0 33.67-27.477 60.952-61.342 60.952H389.315c-33.89 0-61.318-27.282-61.318-60.952h-61.318v548.596z m197.656-316.075l47.714-118.979 47.689 118.98H702.83l-95.403 95.158 23.869 142.8-119.247-71.412-119.272 71.411 23.845-142.799-95.403-95.159h143.116zM880.006 85.333H757.321v121.905h61.343v670.476H205.312V207.238h61.367V85.333H143.994c-33.84 0-61.318 27.283-61.318 60.953v792.38c0 33.67 27.477 60.953 61.342 60.953H880.03c33.866 0 61.343-27.282 61.343-60.952V146.286c-0.049-33.67-27.526-60.953-61.367-60.953zM389.315 268.19h245.346c33.865 0 61.318-27.282 61.318-60.952V85.31H573.342V24.381H450.658v60.952H327.997v121.905c0 33.646 27.453 60.952 61.318 60.952z m61.343-121.929h122.684v60.953H450.658V146.26z" p-id="6677"></path></svg>