<?xml version="1.0" standalone="no"?><!DOCTYPE svg PUBLIC "-//W3C//DTD SVG 1.1//EN" "http://www.w3.org/Graphics/SVG/1.1/DTD/svg11.dtd"><svg t="1514268210861" class="icon" style="" viewBox="0 0 1024 1024" version="1.1" xmlns="http://www.w3.org/2000/svg" p-id="1461" xmlns:xlink="http://www.w3.org/1999/xlink" width="32" height="32"><defs><style type="text/css"></style></defs><path d="M884.363636 174.545455c-12.8 0-23.272727 10.472727-23.272727 23.272727s10.472727 23.272727 23.272727 23.272727c51.432727 0 93.090909 41.658182 93.090909 93.090909l0 104.261818-143.127273 227.607273c-2.327273 3.490909-69.12 102.632727-136.843636 116.363636-18.618182 3.723636-34.909091 0.698182-50.269091-9.541818-16.058182-10.705455-34.909091-13.963636-55.621818-9.774545-75.403636 15.127273-163.607273 128-198.283636 176.174545L302.545455 919.272727c-51.432727 0-93.090909-41.658182-93.090909-93.090909L209.454545 314.181818c0-51.432727 41.658182-93.090909 93.090909-93.090909 12.8 0 23.272727-10.472727 23.272727-23.272727s-10.472727-23.272727-23.272727-23.272727c-35.84 0-68.421818 13.498182-93.090909 35.607273L209.454545 197.818182c0-25.832727-14.429091-49.570909-39.563636-64.698182C151.738182 122.414545 128.698182 116.363636 104.727273 116.363636s-47.010909 6.050909-65.163636 16.756364C14.429091 148.247273 0 171.985455 0 197.818182l0 744.727273c0 25.832727 14.429091 49.570909 39.563636 64.698182 18.152727 10.938182 41.192727 16.756364 65.163636 16.756364s47.010909-6.050909 65.163636-16.756364c25.134545-15.127273 39.563636-38.632727 39.563636-64.698182l0-12.334545c24.669091 22.109091 57.250909 35.607273 93.090909 35.607273l581.818182 0c77.032727 0 139.636364-62.603636 139.636364-139.636364L1024 314.181818C1024 237.149091 961.396364 174.545455 884.363636 174.545455zM104.727273 162.909091c32.116364 0 58.181818 15.592727 58.181818 34.909091l0 116.363636 0 512 0 47.941818c-16.989091-8.378182-37.236364-13.032727-58.181818-13.032727s-41.192727 4.654545-58.181818 13.032727L46.545455 197.818182C46.545455 178.501818 72.610909 162.909091 104.727273 162.909091zM104.727273 977.454545c-32.116364 0-58.181818-15.592727-58.181818-34.909091s26.065455-34.909091 58.181818-34.909091 58.181818 15.592727 58.181818 34.909091S136.843636 977.454545 104.727273 977.454545zM884.363636 919.272727 422.167273 919.272727c37.934545-50.734545 113.105455-141.032727 174.08-153.367273 14.894545-3.025455 27.229091-0.930909 38.167273 6.283636 20.48 13.498182 43.054545 17.92 67.723636 13.032727 77.963636-15.825455 148.712727-121.949091 151.738182-126.370909l123.810909-196.654545L977.687273 826.181818C977.454545 877.614545 935.796364 919.272727 884.363636 919.272727z" p-id="1462"></path><path d="M693.527273 241.338182c0-60.276364-44.218182-109.149091-98.909091-109.149091-54.690909 0-98.909091 48.872727-98.909091 109.149091 0 60.276364 44.218182 109.149091 98.909091 109.149091C649.309091 350.487273 693.527273 301.614545 693.527273 241.338182zM538.763636 241.338182c0-34.443636 24.669091-61.672727 55.854545-61.672727 31.185455 0 55.854545 27.229091 55.854545 61.672727 0 34.443636-24.669091 61.672727-55.854545 61.672727C563.665455 303.010909 538.763636 275.781818 538.763636 241.338182z" p-id="1463"></path><path d="M593.454545 698.181818c11.636364 0 22.109091-5.818182 28.625455-15.825455C684.450909 590.429091 826.181818 367.709091 826.181818 257.163636 826.181818 114.967273 722.152727 0 593.454545 0c-128.698182 0-232.727273 114.967273-232.727273 257.163636 0 111.941818 141.730909 333.265455 204.101818 425.192727C571.345455 692.363636 581.818182 698.181818 593.454545 698.181818zM594.850909 47.476364c104.029091 0 189.905455 94.72 189.905455 209.687273 0 63.301818-66.327273 201.076364-174.312727 364.916364-3.956364 5.818182-9.076364 8.610909-15.592727 8.610909-6.516364 0-11.636364-2.792727-15.592727-8.610909C471.272727 456.843636 404.945455 318.836364 404.945455 257.163636 404.945455 142.196364 489.425455 47.476364 594.850909 47.476364z" p-id="1464"></path></svg>