<?xml version="1.0" encoding="utf-8"?>
<!-- Generator: Adobe Illustrator 21.0.2, SVG Export Plug-In . SVG Version: 6.00 Build 0)  -->
<svg version="1.1" id="图层_1" xmlns="http://www.w3.org/2000/svg" xmlns:xlink="http://www.w3.org/1999/xlink" x="0px" y="0px"
	 viewBox="0 0 32 32" style="enable-background:new 0 0 32 32;" xml:space="preserve">
<style type="text/css">
	.st0{fill:#FA3F54;}
	.st1{font-family:'MicrosoftYaHei-Bold';}
	.st2{font-size:6.8121px;}
</style>
<path class="st0" d="M16,9.1c2.3,0,4.3,1.1,5.6,2.8l0.9,0.2C21.1,10,18.7,8.5,16,8.5c-1.3,0-2.6,0.3-3.7,0.9l0.9,0.2
	C14.1,9.3,15,9.1,16,9.1z M20.6,8.7L21,9.1l0.1-0.6l0.5-0.3l-0.5-0.3L21,7.3l-0.5,0.4h-0.6l0.2,0.6l-0.2,0.6L20.6,8.7z M12.2,7.4
	L11.7,7l-0.1,0.6L11,8l0.5,0.3l0.2,0.6l0.4-0.5h0.6l-0.3-0.5l0.2-0.6C12.8,7.3,12.2,7.4,12.2,7.4z M16.8,6.5L16.4,6l-0.3,0.6
	l-0.6,0.2L16,7.2v0.6l0.6-0.3l0.6,0.2l-0.1-0.6l0.4-0.5L16.8,6.5L16.8,6.5z M23.6,10.3L23,10v0.6L22.5,11l0.6,0.3l0.2,0.6l0.4-0.4
	h0.6L24,10.8l0.2-0.6L23.6,10.3L23.6,10.3z M30.4,14.9l-26.2-7C3.5,7.7,2.8,8.1,2.7,8.7l-1.9,7C0.6,16.3,1,17,1.6,17.2l26.2,7
	c0.6,0.2,1.3-0.2,1.5-0.9l1.9-7C31.4,15.7,31,15.1,30.4,14.9z M30.6,16.5l-1.7,6.4c-0.1,0.5-0.6,0.8-1.1,0.6L2.1,16.7
	c-0.5-0.1-0.8-0.6-0.6-1.1l1.7-6.4c0.1-0.5,0.6-0.8,1.1-0.6l25.6,6.9C30.4,15.5,30.7,16,30.6,16.5L30.6,16.5z M16,5.2
	c5,0,9.3,3.4,10.5,8l0.7,0.2C26,8.3,21.4,4.6,16,4.6c-3.3,0-6.3,1.4-8.3,3.6l0.7,0.2C10.3,6.4,13,5.2,16,5.2z M18.8,22.4
	C17.9,22.8,17,23,16,23c-2.3,0-4.3-1.1-5.6-2.8L9.5,20c1.3,2.2,3.7,3.7,6.5,3.7c1.3,0,2.6-0.3,3.7-0.9
	C19.7,22.6,18.8,22.4,18.8,22.4z M12.3,23.6l-0.5-0.4l-0.1,0.6l-0.5,0.3l0.5,0.3l0.1,0.6l0.5-0.4h0.6L12.7,24l0.2-0.6L12.3,23.6z
	 M16,25.5l0.4,0.5l0.3-0.6l0.6-0.2l-0.4-0.4v-0.6l-0.6,0.3l-0.6-0.2l0.1,0.6l-0.4,0.5L16,25.5L16,25.5z M8.4,21.7l0.5,0.4L9,21.5
	l0.5-0.3L9,20.9l-0.2-0.6l-0.5,0.4H7.7L8,21.2l-0.2,0.6L8.4,21.7L8.4,21.7z M16,26.9c-5,0-9.3-3.4-10.5-8l-0.7-0.2
	c1.2,5.1,5.7,8.8,11.2,8.8c3.3,0,6.3-1.4,8.3-3.6l-0.7-0.2C21.7,25.7,19,26.9,16,26.9L16,26.9z M20.4,24.7l0.5,0.3l0.1-0.6l0.5-0.4
	L21,23.7l-0.2-0.6l-0.4,0.4h-0.6l0.3,0.5l-0.2,0.6C19.7,24.8,20.4,24.7,20.4,24.7z"/>
<text transform="matrix(0.965 0.2621 -0.2621 0.965 9.4268 16.7512)" class="st0 st1 st2">驳回</text>
</svg>
