<?xml version="1.0" standalone="no"?><!DOCTYPE svg PUBLIC "-//W3C//DTD SVG 1.1//EN" "http://www.w3.org/Graphics/SVG/1.1/DTD/svg11.dtd"><svg t="1514974658671" class="icon" style="" viewBox="0 0 1024 1024" version="1.1" xmlns="http://www.w3.org/2000/svg" p-id="4634" xmlns:xlink="http://www.w3.org/1999/xlink" width="32" height="32"><defs><style type="text/css"></style></defs><path d="M185.847039 420.656491V29.749853A26.148151 26.148151 0 0 0 157.889896 2.121618a26.148151 26.148151 0 0 0-27.628235 27.628235v390.906638A26.148151 26.148151 0 0 0 157.889896 448.366953a27.792689 27.792689 0 0 0 27.957143-27.710462zM539.422668 996.244724V564.224642a27.710462 27.710462 0 0 0-55.338697 0v432.020082a26.148151 26.148151 0 0 0 27.381554 27.710462 27.792689 27.792689 0 0 0 27.957143-27.710462zM185.847039 996.244724V810.905313a26.148151 26.148151 0 0 0-27.957143-27.628235 26.148151 26.148151 0 0 0-27.628235 27.628235v185.339411a26.148151 26.148151 0 0 0 27.628235 27.710462 27.792689 27.792689 0 0 0 27.957143-27.710462z"  p-id="4635"></path><path d="M157.889896 616.767625A82.22689 82.22689 0 1 1 75.663006 698.994515a82.22689 82.22689 0 0 1 82.22689-82.22689m0-57.558824a139.785714 139.785714 0 1 0 139.785714 139.785714 139.785714 139.785714 0 0 0-139.785714-139.785714zM865.863423 448.366953a26.148151 26.148151 0 0 0 27.628235-27.710462V29.749853a27.710462 27.710462 0 0 0-55.338697 0v390.906638a27.792689 27.792689 0 0 0 27.710462 27.710462zM865.863423 1023.955186a26.148151 26.148151 0 0 0 27.628235-27.710462V810.905313a27.710462 27.710462 0 0 0-55.338697 0v185.339411a27.792689 27.792689 0 0 0 27.710462 27.710462z"  p-id="4636"></path><path d="M865.863423 616.767625a82.22689 82.22689 0 1 1-82.22689 82.22689 82.22689 82.22689 0 0 1 82.22689-82.22689m0-57.558824a139.785714 139.785714 0 1 0 139.785714 139.785714 139.785714 139.785714 0 0 0-139.785714-139.785714zM484.083971 27.694181V237.701659a27.710462 27.710462 0 1 0 55.338697 0V27.694181A26.148151 26.148151 0 0 0 511.465525 0.065946a27.628235 27.628235 0 0 0-27.381554 27.628235z"  p-id="4637"></path><path d="M511.465525 278.815105a111.993025 111.993025 0 1 1-111.664117 111.910798A112.075252 112.075252 0 0 1 511.465525 278.815105m0-57.558824a169.551848 169.551848 0 1 0 169.798529 169.469622A169.469621 169.469621 0 0 0 511.465525 221.256281z"  p-id="4638"></path></svg>