<?xml version="1.0" standalone="no"?><!DOCTYPE svg PUBLIC "-//W3C//DTD SVG 1.1//EN" "http://www.w3.org/Graphics/SVG/1.1/DTD/svg11.dtd"><svg t="1526433293625" class="icon" style="" viewBox="0 0 1024 1024" version="1.1" xmlns="http://www.w3.org/2000/svg" p-id="2571" xmlns:xlink="http://www.w3.org/1999/xlink" width="48" height="48"><defs><style type="text/css"></style></defs><path d="M566.30303 868.848485H93.090909a31.030303 31.030303 0 0 0 0 62.060606h498.65697a246.690909 246.690909 0 0 1-25.444849-62.060606zM806.787879 992.969697a186.181818 186.181818 0 1 1 186.181818-186.181818 186.181818 186.181818 0 0 1-186.181818 186.181818z m-85.333334-248.242424v124.121212a23.272727 23.272727 0 0 0 46.545455 0v-124.121212a23.272727 23.272727 0 0 0-46.545455 0z m124.121213 0v124.121212a23.272727 23.272727 0 0 0 46.545454 0v-124.121212a23.272727 23.272727 0 0 0-46.545454 0z m-15.515152-403.39394a36.460606 36.460606 0 0 1 26.530909 63.922425l-357.934545 356.848484a46.545455 46.545455 0 0 1-65.784243 0l-357.934545-356.848484A36.460606 36.460606 0 0 1 101.158788 341.333333H248.242424V108.606061a46.545455 46.545455 0 0 1 46.545455-46.545455h341.333333a46.545455 46.545455 0 0 1 46.545455 46.545455v232.727272zM651.636364 403.393939a31.030303 31.030303 0 0 1-31.030303-31.030303V124.121212H310.30303v248.242424a31.030303 31.030303 0 0 1-31.030303 31.030303h-118.690909L465.454545 707.335758 770.172121 403.393939z" p-id="2572"></path></svg>