<?xml version="1.0" standalone="no"?><!DOCTYPE svg PUBLIC "-//W3C//DTD SVG 1.1//EN" "http://www.w3.org/Graphics/SVG/1.1/DTD/svg11.dtd"><svg t="1514975043619" class="icon" style="" viewBox="0 0 1030 1024" version="1.1" xmlns="http://www.w3.org/2000/svg" p-id="1994" xmlns:xlink="http://www.w3.org/1999/xlink" width="32.1875" height="32"><defs><style type="text/css"></style></defs><path d="M673.28 753.664H353.28c-15.36 0-28.16-12.8-28.16-28.16V420.864c0-15.36 12.8-28.16 28.16-28.16h320c15.36 0 28.16 12.8 28.16 28.16v304.64c0 15.36-12.8 28.16-28.16 28.16z m-291.84-56.32H645.12V449.024H381.44v248.32z" p-id="1995"></path><path d="M762.368 659.968c-15.36 0-28.16-12.8-28.16-28.16v-276.48h-291.84c-15.36 0-28.16-12.8-28.16-28.16s12.8-28.16 28.16-28.16h320c15.36 0 28.16 12.8 28.16 28.16v304.64c0 15.36-12.8 28.16-28.16 28.16z" p-id="1996"></path><path d="M890.88 949.76H174.08c-15.36 0-28.16-12.8-28.16-28.16v-159.232c0-15.36 12.8-28.16 28.16-28.16s28.16 12.8 28.16 28.16v131.072h660.48V147.456h-660.48V276.48c0 15.36-12.8 28.16-28.16 28.16S145.92 291.84 145.92 276.48V119.296c0-15.36 12.8-28.16 28.16-28.16h716.8c15.36 0 28.16 12.8 28.16 28.16V921.6c0 15.36-12.8 28.16-28.16 28.16z" p-id="1997"></path><path d="M198.144 424.448H119.296c-15.36 0-28.16-12.8-28.16-28.16s12.8-28.16 28.16-28.16h78.848c15.36 0 28.16 12.8 28.16 28.16s-12.8 28.16-28.16 28.16zM198.144 547.328H119.296c-15.36 0-28.16-12.8-28.16-28.16s12.8-28.16 28.16-28.16h78.848c15.36 0 28.16 12.8 28.16 28.16s-12.8 28.16-28.16 28.16zM198.144 675.328H119.296c-15.36 0-28.16-12.8-28.16-28.16s12.8-28.16 28.16-28.16h78.848c15.36 0 28.16 12.8 28.16 28.16s-12.8 28.16-28.16 28.16z" p-id="1998"></path></svg>