<?xml version="1.0" standalone="no"?><!DOCTYPE svg PUBLIC "-//W3C//DTD SVG 1.1//EN" "http://www.w3.org/Graphics/SVG/1.1/DTD/svg11.dtd"><svg t="1514974750006" class="icon" style="" viewBox="0 0 1037 1024" version="1.1" xmlns="http://www.w3.org/2000/svg" p-id="5254" xmlns:xlink="http://www.w3.org/1999/xlink" width="32.40625" height="32"><defs><style type="text/css"></style></defs><path d="M302.308943 724.552846H130.861789c-12.747967 0-23.154472 10.406504-23.154472 23.154471v171.447155c0 12.747967 10.406504 23.154472 23.154472 23.154471h171.447154c12.747967 0 23.154472-10.406504 23.154472-23.154471v-171.447155c0-12.747967-10.406504-23.154472-23.154472-23.154471z m6.764228 178.211382c0 12.747967-10.406504 23.154472-23.154472 23.154471H147.252033c-12.747967 0-23.154472-10.406504-23.154472-23.154471v-138.666667c0-12.747967 10.406504-23.154472 23.154472-23.154472h138.666666c12.747967 0 23.154472 10.406504 23.154472 23.154472V902.764228zM302.308943 386.861789H130.861789c-12.747967 0-23.154472 10.406504-23.154472 23.154471v171.447155c0 12.747967 10.406504 23.154472 23.154472 23.154471h171.447154c12.747967 0 23.154472-10.406504 23.154472-23.154471v-171.447155c0-12.747967-10.406504-23.154472-23.154472-23.154471z m6.764228 178.211382c0 12.747967-10.406504 23.154472-23.154472 23.154471H147.252033c-12.747967 0-23.154472-10.406504-23.154472-23.154471v-138.666667c0-12.747967 10.406504-23.154472 23.154472-23.154471h138.666666c12.747967 0 23.154472 10.406504 23.154472 23.154471v138.666667zM447.739837 849.691057h516.94309v29.398374H447.739837zM447.739837 516.682927h516.94309v29.398374H447.739837zM447.739837 183.934959h516.94309V213.333333H447.739837zM138.146341 167.804878L169.105691 198.243902c11.707317 9.886179 29.398374 8.585366 39.284553-3.121951l98.081301-113.430894 21.593496 9.365854L210.731707 228.943089c-9.886179 11.707317-27.577236 13.00813-39.284553 3.121952L119.934959 188.097561l18.211382-20.292683z"  p-id="5255"></path></svg>