<?xml version="1.0" standalone="no"?><!DOCTYPE svg PUBLIC "-//W3C//DTD SVG 1.1//EN" "http://www.w3.org/Graphics/SVG/1.1/DTD/svg11.dtd"><svg t="1514974892340" class="icon" style="" viewBox="0 0 1024 1024" version="1.1" xmlns="http://www.w3.org/2000/svg" p-id="1576" xmlns:xlink="http://www.w3.org/1999/xlink" width="32" height="32"><defs><style type="text/css"></style></defs><path d="M598.07888 465.432737l59.267426 0 0 64.911942-59.267426 0 0-64.911942Z" p-id="1577"></path><path d="M361.009178 465.432737l59.267426 0 0 64.911942-59.267426 0 0-64.911942Z" p-id="1578"></path><path d="M242.474327 465.432737l59.267426 0 0 64.911942-59.267426 0 0-64.911942Z" p-id="1579"></path><path d="M712.380343 465.432737l59.267426 0 0 64.911942-59.267426 0 0-64.911942Z" p-id="1580"></path><path d="M826.681807 465.432737l59.267426 0 0 64.911942-59.267426 0 0-64.911942Z" p-id="1581"></path><path d="M123.939476 465.432737l59.267426 0 0 64.911942-59.267426 0 0-64.911942Z" p-id="1582"></path><path d="M418.583248 53.383017l57.574071 0 0 64.911942-57.574071 0 0-64.911942Z" p-id="1583"></path><path d="M535.424744 53.383017l57.574071 0 0 64.911942-57.574071 0 0-64.911942Z" p-id="1584"></path><path d="M301.741752 53.383017l57.574071 0 0 64.911942-57.574071 0 0-64.911942Z" p-id="1585"></path><path d="M183.206901 53.383017l59.267426 0 0 64.911942-59.267426 0 0-64.911942Z" p-id="1586"></path><path d="M652.26624 53.383017l57.571248 0 0 64.911942-57.571248 0 0-64.911942Z" p-id="1587"></path><path d="M885.949232 53.383017 885.949232 118.294959 885.949232 883.126974 123.939476 883.126974 123.939476 118.294959 123.939476 53.383017 59.027534 53.383017 59.027534 945.216658 945.216658 945.216658 945.216658 53.383017Z" p-id="1588"></path><path d="M769.107736 53.383017l57.574071 0 0 64.911942-57.574071 0 0-64.911942Z" p-id="1589"></path><path d="M476.721771 586.789846l64.911942 0 0 59.267426-64.911942 0 0-59.267426Z" p-id="1590"></path><path d="M476.721771 349.720144l64.911942 0 0 59.267426-64.911942 0 0-59.267426Z" p-id="1591"></path><path d="M476.721771 231.185293l64.911942 0 0 59.267426-64.911942 0 0-59.267426Z" p-id="1592"></path><path d="M476.721771 705.324698l64.911942 0 0 59.267426-64.911942 0 0-59.267426Z" p-id="1593"></path><path d="M476.721771 823.859549l64.911942 0 0 59.267426-64.911942 0 0-59.267426Z" p-id="1594"></path><path d="M476.721771 112.650442l64.911942 0 0 59.267426-64.911942 0 0-59.267426Z" p-id="1595"></path><path d="M418.583248 53.383017l57.574071 0 0 64.911942-57.574071 0 0-64.911942Z" p-id="1596"></path><path d="M535.424744 53.383017l57.574071 0 0 64.911942-57.574071 0 0-64.911942Z" p-id="1597"></path><path d="M301.741752 53.383017l57.574071 0 0 64.911942-57.574071 0 0-64.911942Z" p-id="1598"></path><path d="M183.206901 53.383017l59.267426 0 0 64.911942-59.267426 0 0-64.911942Z" p-id="1599"></path><path d="M652.26624 53.383017l57.571248 0 0 64.911942-57.571248 0 0-64.911942Z" p-id="1600"></path><path d="M418.583248 883.126974l57.574071 0 0 62.089684-57.574071 0 0-62.089684Z" p-id="1601"></path><path d="M535.424744 883.126974l57.574071 0 0 62.089684-57.574071 0 0-62.089684Z" p-id="1602"></path><path d="M59.027534 171.917868l64.911942 0 0 59.267426-64.911942 0 0-59.267426Z" p-id="1603"></path><path d="M769.107736 883.126974l57.574071 0 0 62.089684-57.574071 0 0-62.089684Z" p-id="1604"></path><path d="M301.741752 883.126974l57.574071 0 0 62.089684-57.574071 0 0-62.089684Z" p-id="1605"></path><path d="M652.26624 883.126974l57.571248 0 0 62.089684-57.571248 0 0-62.089684Z" p-id="1606"></path><path d="M59.027534 53.383017l64.911942 0 0 59.267426-64.911942 0 0-59.267426Z" p-id="1607"></path><path d="M59.027534 883.126974l64.911942 0 0 62.089684-64.911942 0 0-62.089684Z" p-id="1608"></path><path d="M59.027534 646.057272l64.911942 0 0 59.267426-64.911942 0 0-59.267426Z" p-id="1609"></path><path d="M59.027534 527.522421l64.911942 0 0 59.267426-64.911942 0 0-59.267426Z" p-id="1610"></path><path d="M59.027534 764.592123l64.911942 0 0 59.267426-64.911942 0 0-59.267426Z" p-id="1611"></path><path d="M183.206901 883.126974l59.267426 0 0 62.089684-59.267426 0 0-62.089684Z" p-id="1612"></path><path d="M59.027534 408.98757l64.911942 0 0 59.267426-64.911942 0 0-59.267426Z" p-id="1613"></path><path d="M59.027534 290.452719l64.911942 0 0 59.267426-64.911942 0 0-59.267426Z" p-id="1614"></path><path d="M885.949232 290.452719l59.267426 0 0 59.267426-59.267426 0 0-59.267426Z" p-id="1615"></path><path d="M885.949232 408.98757l59.267426 0 0 59.267426-59.267426 0 0-59.267426Z" p-id="1616"></path><path d="M885.949232 764.592123l59.267426 0 0 59.267426-59.267426 0 0-59.267426Z" p-id="1617"></path><path d="M885.949232 527.522421l59.267426 0 0 59.267426-59.267426 0 0-59.267426Z" p-id="1618"></path><path d="M885.949232 883.126974l59.267426 0 0 62.089684-59.267426 0 0-62.089684Z" p-id="1619"></path><path d="M885.949232 171.917868l59.267426 0 0 59.267426-59.267426 0 0-59.267426Z" p-id="1620"></path><path d="M885.949232 646.057272l59.267426 0 0 59.267426-59.267426 0 0-59.267426Z" p-id="1621"></path><path d="M885.949232 53.383017l59.267426 0 0 59.267426-59.267426 0 0-59.267426Z" p-id="1622"></path><path d="M769.107736 53.383017l57.574071 0 0 64.911942-57.574071 0 0-64.911942Z" p-id="1623"></path><path d="M69.678018 108.346742l46.076981-45.713505 822.721848 829.263439-46.076981 45.713505-822.721848-829.263439Z" p-id="1624"></path></svg>