<?xml version="1.0" standalone="no"?><!DOCTYPE svg PUBLIC "-//W3C//DTD SVG 1.1//EN" "http://www.w3.org/Graphics/SVG/1.1/DTD/svg11.dtd"><svg t="1515118567898" class="icon" style="" viewBox="0 0 1024 1024" version="1.1" xmlns="http://www.w3.org/2000/svg" p-id="3556" xmlns:xlink="http://www.w3.org/1999/xlink" width="32" height="32"><defs><style type="text/css"></style></defs><path d="M756.917 340.91c-63.165-63.525-146.543-95.29-229.561-95.29V128.674L374.314 281.716l153.042 153.041V317.811c64.609 0 129.22 24.546 178.669 73.994 98.537 98.537 98.537 258.799 0 357.339-49.449 49.448-114.06 73.992-178.669 73.992-35.013 0-70.024-7.578-102.51-22.017l-53.78 53.78c48.729 26.711 102.508 40.427 156.29 40.427 83.018 0 166.396-31.764 229.561-95.29 127.056-126.693 127.056-332.433 0-459.126zM448.563 528.663c9.659-15.302 14.527-31.533 14.453-48.692 0-30.988-13.142-58.118-39.571-81.459-26.432-23.336-61.904-35.008-106.58-35.008-42.427 0-76.742 11.518-102.866 34.549-26.121 23.029-41.349 54.792-42.2 84.084-0.848 29.293 68.784 23.187 71.335 8.733 2.706-15.303 14.146-40.036 27.439-51.239 13.291-11.209 29.831-16.851 49.618-16.851 20.48 0 36.865 5.412 48.922 16.155 12.058 10.819 18.159 23.726 18.159 38.794 0 10.823-3.473 20.793-10.275 29.835-4.407 5.718-18.008 17.774-40.653 36.246-22.649 18.396-37.796 35.011-45.368 49.771-7.576 14.764-11.361 33.543-11.361 56.418 0 2.242 0.155 8.426 0.309 18.552h70.638c-0.385-21.407 1.472-36.251 5.412-44.519 3.942-8.349 14.143-19.322 30.529-32.922 31.685-26.356 52.323-47.142 62.06-62.447z m-133.24 177.835c-27.439 0-49.621 21.794-49.621 48.611 0 26.819 22.261 48.613 49.621 48.613 27.436 0 49.617-21.794 49.617-48.613 0-26.817-22.261-48.611-49.617-48.611z" p-id="3557"></path></svg>