<?xml version="1.0" standalone="no"?><!DOCTYPE svg PUBLIC "-//W3C//DTD SVG 1.1//EN" "http://www.w3.org/Graphics/SVG/1.1/DTD/svg11.dtd"><svg t="1514974743739" class="icon" style="" viewBox="0 0 1024 1024" version="1.1" xmlns="http://www.w3.org/2000/svg" p-id="5130" xmlns:xlink="http://www.w3.org/1999/xlink" width="32" height="32"><defs><style type="text/css"></style></defs><path d="M884 128H703.875V76c0-6.627-5.373-12-12-12h-40c-6.629 0-12 5.373-12 12v52h-96V76c0-6.627-5.373-12-12-12h-40c-6.629 0-12 5.373-12 12v52h-96V76c0-6.627-5.373-12-12-12h-40c-6.629 0-12 5.373-12 12v52H140c-6.627 0-12 5.373-12 12v808c0 6.63 5.373 12 12 12h364v-64H192V192h127.875v52c0 6.627 5.371 12 12 12h40c6.627 0 12-5.373 12-12v-52h96v52c0 6.627 5.371 12 12 12h40c6.627 0 12-5.373 12-12v-52h96v52c0 6.627 5.371 12 12 12h40c6.627 0 12-5.373 12-12v-52H832v288h63.875L896 140c0-6.627-5.372-12-12-12z" p-id="5131"></path><path d="M767.875 404c0 6.627-5.373 12-12 12h-296c-6.629 0-12-5.373-12-12v-38.367c0-6.627 5.371-12 12-12h296c6.627 0 12 5.373 12 12V404zM575.875 596c0 6.629-5.373 12-12 12h-104c-6.629 0-12-5.371-12-12v-40c0-6.627 5.371-12 12-12h104c6.627 0 12 5.373 12 12v40zM576 788c0 6.629-5.373 12-12 12H460c-6.629 0-12-5.371-12-12v-40c0-6.627 5.371-12 12-12h104c6.627 0 12 5.373 12 12v40zM383.875 788c0 6.629-5.373 12-12 12h-104c-6.627 0-12-5.371-12-12v-38.386c0-6.627 5.373-12 12-12h104c6.627 0 12 5.373 12 12V788zM383.875 596c0 6.629-5.373 12-12 12h-104c-6.627 0-12-5.371-12-12v-40c0-6.627 5.373-12 12-12h104c6.627 0 12 5.373 12 12v40zM383.875 404c0 6.627-5.373 12-12 12h-104c-6.627 0-12-5.373-12-12v-40c0-6.627 5.373-12 12-12h104c6.627 0 12 5.373 12 12v40zM768 544c-70.692 0-128 57.309-128 128 0 70.692 57.308 128 128 128 70.691 0 128-57.308 128-128 0-70.692-57.308-128-128-128z m0 190.875c-35.348 0-64-28.652-64-64 0-35.347 28.652-64 64-64 35.347 0 64 28.653 64 64s-28.653 64-64 64zM768 864c59.643 0 109.758 40.793 123.967 96h65.362C942.094 869.195 863.135 800 768 800c-95.136 0-174.095 69.195-189.33 160h65.362c14.209-55.206 64.325-96 123.968-96z" p-id="5132"></path></svg>