<?xml version="1.0" standalone="no"?><!DOCTYPE svg PUBLIC "-//W3C//DTD SVG 1.1//EN" "http://www.w3.org/Graphics/SVG/1.1/DTD/svg11.dtd"><svg t="1514974726990" class="icon" style="" viewBox="0 0 1024 1024" version="1.1" xmlns="http://www.w3.org/2000/svg" p-id="4884" xmlns:xlink="http://www.w3.org/1999/xlink" width="32" height="32"><defs><style type="text/css"></style></defs><path d="M319.184 567.24c-0.665 0.886-1.329 1.8-1.633 2.907l-51.532 195.307c-2.99 11.375 0.083 23.635 8.22 32.27 6.088 6.144 14.114 9.52 22.666 9.52 2.823 0 5.645-0.332 8.413-1.107l187.558-52.888c0.305 0 0.443 0.277 0.664 0.277 2.159 0 4.29-0.803 5.868-2.519l501.538-518.448c14.89-15.416 23.054-36.421 23.054-59.282 0-25.904-10.627-51.78-29.226-70.988l-47.353-49.041c-18.598-19.235-43.672-30.25-68.69-30.25-22.113 0-42.427 8.442-57.372 23.83L319.93 565.441c-0.526 0.498-0.388 1.217-0.747 1.799M951.85 181.774l-49.817 51.477-80.73-84.826L870.4 97.667c7.75-8.08 22.805-6.89 31.716 2.353l47.409 49.041c4.926 5.12 7.749 11.9 7.749 18.626-0.028 5.507-1.91 10.517-5.424 14.087M408.355 575.377l361.887-374.175 80.813 84.881L489.832 659.54l-81.477-84.162zM342.43 727.095l26.154-99.245 69.77 72.123-95.924 27.122z m641.19-339.857c-18.985 0-34.54 15.969-34.622 35.868V906.46c0 25.351-19.899 45.942-44.447 45.942h-790.86c-24.521 0-44.503-20.59-44.503-45.942v-788.95c0-25.379 19.982-45.97 44.503-45.97h509.343c19.096 0 34.594-16.051 34.594-35.784C657.63 16.052 642.131 0 623.035 0h-514.63C48.655 0 0 50.259 0 112.086v799.855C0 973.77 48.654 1024 108.406 1024h801.376c59.808 0 108.406-50.231 108.406-112.059V422.857c-0.055-19.65-15.581-35.619-34.567-35.619" p-id="4885"></path></svg>