<?xml version="1.0" standalone="no"?><!DOCTYPE svg PUBLIC "-//W3C//DTD SVG 1.1//EN" "http://www.w3.org/Graphics/SVG/1.1/DTD/svg11.dtd"><svg t="1515118723153" class="icon" style="" viewBox="0 0 1024 1024" version="1.1" xmlns="http://www.w3.org/2000/svg" p-id="5061" xmlns:xlink="http://www.w3.org/1999/xlink" width="32" height="32"><defs><style type="text/css"></style></defs><path d="M868.5 403.5c-23.4-4.1-40.2-10.2-49.7-37.4-55.1-156.8-217.7-252-379-224.9-166 27.9-288.7 168.3-291.7 333.7-3 169.2 111.5 314.5 277.4 347.6 28.4 5.7 37.3 21 44.4 43.7-166.2 16.7-345.4-161.4-361.1-357.9C92.3 299.7 257.5 110.8 469 98.1c231.3-14 381.7 166.1 399.5 305.4z" fill="" p-id="5062"></path><path d="M371.4 660c-11.3-13.3-17.2-20.3-24.7-29.1 51.9-49.1 86.6-108.2 105.5-180h-82.4c10.2-29.8 18.9-55.4 28.2-82.3 11.1 2.9 19.8 5.2 30.4 8-6.4 16-12.3 30.8-18.9 47.2H460c3.9-19.4 7.8-38.4 12.2-60.2 9.2 1.4 17.9 2.7 29.1 4.4-2.9 19-5.5 36.3-8.5 56.2h179.8c0.4 9.4 0.7 16.5 1.1 23.6-4.2 1.2-6.5 2.5-8.9 2.5-50.3 0.2-100.7 0.2-151 0.2-31.5 0-31.5 0-36.6 35.5h159.2c0.2 52.9-40.5 78.9-69.9 117.9 36.5 13.6 71.6 26.6 106.6 39.7-6.6 19.3-20.2 24.5-40.3 15.7-31-13.6-62.2-26.8-91.5-39.4-38.3 17.8-76.5 35.6-114.9 53.5-8.3-10.6-14-17.9-18.9-24.1 36.8-16.2 73-32 109.2-47.9-20.3-26.5-37.8-49.3-54.4-70.9-28.9 41.3-59.1 84.2-90.9 129.5z m234.2-146.7H482c20.7 26.2 38.2 48.3 59 74.6 22-25.5 41-47.4 64.6-74.6z" fill="" p-id="5063"></path><path d="M856.4 606.8c19.8 0 38.5-1 56.9 0.5 8 0.6 15.5 6.5 23.2 9.9-7.4 4-14.7 8-22.1 11.9-2.1 1.1-4.6 1.5-8.7 2.8v191.3c0 32.3-4.6 36.8-36.9 36.9-48.6 0.1-97.2 0.2-145.8 0-29.1-0.1-33.7-4.9-33.8-34.7-0.1-64.7 0-129.3 0-189-13.5-8.1-23.4-13.9-33.2-19.8 11.3-3.3 22.4-8.2 33.8-9.4 15-1.6 30.3-0.4 46.9-0.4 0.6-9.7 1.1-17.1 1.4-24.6 0.6-15.5 8.8-23.5 24.2-23.7 20.5-0.3 40.9 0.6 61.4-0.3 22.5-1 34.2 7.4 31.8 31.2-0.4 4.9 0.5 9.8 0.9 17.4zM710.7 732.9c0 28.9 0.4 57.9-0.2 86.8-0.3 14.1 5.2 20.1 19.5 19.9 44.2-0.5 88.5-0.8 132.7-0.4 16.7 0.1 22.2-7.1 22-23.2-0.6-55.3-0.5-110.6 0-165.9 0.1-15-4.9-21.6-20.6-21.3-45.1 0.6-90.2 0.7-135.3-0.1-15.5-0.3-18.6 6.7-18.3 20.1 0.6 28 0.2 56 0.2 84.1zM833.3 581h-71.7v24.3h71.7V581zM303.5 665.8c-8-8.1-14.5-14.7-22.1-22.3 62-100 36.3-211.1 44.5-319.7h163.6c-8.2-14.5-14.1-25.1-21-37.2 7.4-5.1 14.1-9.7 23.6-16.3 11.6 17.1 22.7 33.3 35.9 52.7h147.9c0.4 8.4 0.7 15.4 1.1 24.7H356c-4.9 107.8 13.4 217.9-52.5 318.1z" fill="" p-id="5064"></path><path d="M617.4 419.6c-19.5-14.1-37.8-27.3-57.9-41.9 6.6-7.1 11.9-13 18.2-19.8 20.5 12.5 39.7 24.3 61.3 37.5-8.1 9.1-14.6 16.4-21.6 24.2zM842.8 736.8c0 16.1 0.8 32.3-0.5 48.2-0.4 5.3-6.4 10.2-9.8 15.2-4-4.5-11.4-8.9-11.6-13.5-0.9-35.5-0.9-71.1 0.1-106.7 0.1-4.8 7.2-9.5 11-14.2 3.6 5 9.8 9.8 10.2 15 1.3 18.5 0.5 37.2 0.5 55.9l0.1 0.1zM752.1 734.3c0-17.8-0.7-35.6 0.5-53.3 0.4-5.2 6.3-9.9 9.7-14.9 3.6 4.7 10.3 9.3 10.4 14.1 0.9 35.5 0.9 71.1 0 106.6-0.1 4.6-7.2 9-11 13.4-3.2-5.1-8.7-10-9.1-15.2-1.2-16.8-0.5-33.8-0.5-50.7z" fill="" p-id="5065"></path></svg>