<?xml version="1.0" standalone="no"?><!DOCTYPE svg PUBLIC "-//W3C//DTD SVG 1.1//EN" "http://www.w3.org/Graphics/SVG/1.1/DTD/svg11.dtd"><svg t="1526007017934" class="icon" style="" viewBox="0 0 1024 1024" version="1.1" xmlns="http://www.w3.org/2000/svg" p-id="3583" xmlns:xlink="http://www.w3.org/1999/xlink" width="32" height="32"><defs><style type="text/css"></style></defs><path d="M838.4 134.4H204.8c-70.4 0-128 57.6-128 128v512c0 70.4 57.6 128 128 128h633.6c70.4 0 128-57.6 128-128V256c0-70.4-57.6-121.6-128-121.6z m44.8 121.6v217.6H556.8V211.2H832c32 0 51.2 19.2 51.2 44.8zM204.8 211.2h275.2v262.4H153.6V256c0-25.6 25.6-44.8 51.2-44.8zM153.6 768V550.4h326.4v262.4H204.8c-25.6 0-51.2-19.2-51.2-44.8z m684.8 44.8H556.8V550.4h326.4V768c0 25.6-19.2 44.8-44.8 44.8z" p-id="3584"></path></svg>