<?xml version="1.0" standalone="no"?><!DOCTYPE svg PUBLIC "-//W3C//DTD SVG 1.1//EN" "http://www.w3.org/Graphics/SVG/1.1/DTD/svg11.dtd"><svg t="1526467548662" class="icon" style="" viewBox="0 0 1024 1024" version="1.1" xmlns="http://www.w3.org/2000/svg" p-id="6286" xmlns:xlink="http://www.w3.org/1999/xlink" width="48" height="48"><defs><style type="text/css"></style></defs><path d="M273.066667 68.266667h136.533333a68.266667 68.266667 0 0 1 68.266667 68.266666v273.066667a68.266667 68.266667 0 0 1-68.266667 68.266667H136.533333a68.266667 68.266667 0 0 1-68.266666-68.266667V273.066667a204.8 204.8 0 0 1 204.8-204.8zM136.533333 546.133333h273.066667a68.266667 68.266667 0 0 1 68.266667 68.266667v273.066667a68.266667 68.266667 0 0 1-68.266667 68.266666H273.066667a204.8 204.8 0 0 1-204.8-204.8V614.4a68.266667 68.266667 0 0 1 68.266666-68.266667z m477.866667-477.866666h136.533333a204.8 204.8 0 0 1 204.8 204.8v136.533333a68.266667 68.266667 0 0 1-68.266666 68.266667H614.4a68.266667 68.266667 0 0 1-68.266667-68.266667V136.533333a68.266667 68.266667 0 0 1 68.266667-68.266666z m0 477.866666h273.066667a68.266667 68.266667 0 0 1 68.266666 68.266667v136.533333a204.8 204.8 0 0 1-204.8 204.8H614.4a68.266667 68.266667 0 0 1-68.266667-68.266666V614.4a68.266667 68.266667 0 0 1 68.266667-68.266667z" p-id="6287"></path></svg>