<?xml version="1.0" standalone="no"?><!DOCTYPE svg PUBLIC "-//W3C//DTD SVG 1.1//EN" "http://www.w3.org/Graphics/SVG/1.1/DTD/svg11.dtd"><svg t="1522655033674" class="icon" style="" viewBox="0 0 1024 1024" version="1.1" xmlns="http://www.w3.org/2000/svg" p-id="7442" xmlns:xlink="http://www.w3.org/1999/xlink" width="300" height="300"><defs><style type="text/css"></style></defs><path d="M766.439 943.558c-4.43 0-7.182-0.145-7.476-0.16l-0.29-0.02c-42.737-3.023-90.969-17.786-139.485-42.693l-0.587-0.315-54.079-30.249c-102.55-56.177-259.853-218.356-266.5-225.233l-11.433-11.829 0.092-0.114c-27.666-29.689-84.594-94.661-133.902-175.608C97.3 366.262 71.166 287.717 75.1 223.888c2.923-47.425 22.464-85.973 58.08-114.573 38.269-30.73 73.25-43.541 106.934-39.163 36.108 4.69 69.02 28.681 103.574 75.497 2.307 3.127 4.591 6.208 6.842 9.245 25.68 34.643 47.858 64.562 55.936 95.558 9.428 36.174-1.875 69.727-34.558 102.576l-1.133 1.14-0.24 0.144c-1.543 1.577-8.922 10.054-9.1 28.119-0.18 18.292 6.823 40.116 20.814 64.866 19.22 34 51.161 72.403 94.934 114.142 73.369 69.476 120.597 88.595 147.29 92.391 23.4 3.33 33.678-4.654 35.457-6.243l0.307-0.429-0.25 0.379 0.13-0.12c27.874-32.116 63.648-42.732 106.33-31.55 30.784 8.065 64.736 26.94 110.082 61.2 34.674 26.195 55.873 52.228 64.806 79.59 9.914 30.357 5.176 61.741-14.483 95.945-5.145 8.954-16.573 12.04-25.526 6.893-8.952-5.145-12.04-16.573-6.893-25.526 14.275-24.838 17.885-45.717 11.358-65.705-6.483-19.855-23.428-39.927-51.801-61.361-53.48-40.404-80.984-50.662-97.02-54.863-29.01-7.6-50.218-1.41-68.768 20.065-2.237 2.58-16.856 18.028-47.286 19.763-50.307 2.858-114.065-31.899-189.49-103.323-86.843-82.807-129.657-153.37-127.296-209.775 1.334-31.847 17.014-48.313 21.691-52.539 46.8-47.34 27.249-78.139-25.33-149.07-2.266-3.057-4.565-6.158-6.888-9.306-28.098-38.068-52.98-57.33-78.306-60.622-23.049-2.994-48.796 7.224-78.702 31.238-27.443 22.038-41.892 50.73-44.172 87.719-3.406 55.261 21.592 128.465 72.29 211.696 55.646 91.352 121.352 161.616 140.165 180.975l2.492 2.564c20.532 20.968 164.289 166.18 255.179 215.937l0.15 0.083 53.862 30.126c43.89 22.493 86.947 35.8 124.562 38.495 1.385 0.062 16.68 0.665 33.288-2.122 5.99-1.005 12.459-2.23 19.306-3.523 25.757-4.867 57.813-10.927 100.93-12.645 10.296-0.403 19.015 7.62 19.425 17.937 0.411 10.317-7.619 19.015-17.937 19.425-40.364 1.609-70.922 7.386-95.474 12.026-7.041 1.33-13.69 2.587-20.059 3.657-13.71 2.3-26.467 2.737-34.163 2.737z m19.126-510.246a18.699 18.699 0 0 1-17.455-25.402 98.78 98.78 0 0 0 5.943-24.457c6.013-53.875-32.927-102.601-86.802-108.616-18.13-2.025-36.374 0.995-52.765 8.73-9.34 4.405-20.48 0.409-24.888-8.929-4.408-9.338-0.408-20.48 8.93-24.888 22.66-10.692 47.856-14.87 72.874-12.076 69.455 7.755 120.925 66.927 120.66 135.295l25.343-17.929c8.43-5.963 20.099-3.964 26.062 4.466s3.963 20.098-4.466 26.061l-62.638 44.312a18.684 18.684 0 0 1-10.798 3.433z m-107.9 76.116c-5.038 0-10.09-0.279-15.135-0.843-36.027-4.022-68.33-21.832-90.96-50.15-19.556-24.47-29.865-54.253-29.709-85.14l-25.335 17.92c-8.429 5.965-20.099 3.963-26.06-4.467-5.963-8.43-3.964-20.097 4.466-26.061l62.638-44.307a18.697 18.697 0 0 1 28.247 21.977 98.498 98.498 0 0 0-5.94 24.448c-2.914 26.1 4.509 51.77 20.904 72.285 16.394 20.515 39.797 33.418 65.898 36.333 18.127 2.024 36.37-0.996 52.762-8.732 9.338-4.405 20.48-0.408 24.887 8.93 4.408 9.337 0.409 20.48-8.929 24.887a135.214 135.214 0 0 1-57.734 12.92z" p-id="7443"></path></svg>