<?xml version="1.0" standalone="no"?><!DOCTYPE svg PUBLIC "-//W3C//DTD SVG 1.1//EN" "http://www.w3.org/Graphics/SVG/1.1/DTD/svg11.dtd"><svg t="1514974804346" class="icon" style="" viewBox="0 0 1024 1024" version="1.1" xmlns="http://www.w3.org/2000/svg" p-id="5879" xmlns:xlink="http://www.w3.org/1999/xlink" width="32" height="32"><defs><style type="text/css"></style></defs><path d="M784.384 346.9312 253.3376 346.9312c-14.7456 0-26.624-11.8784-26.624-26.4192 0-14.5408 11.8784-26.4192 26.624-26.4192l466.944 0-93.3888-92.9792c-10.4448-10.24-10.4448-27.0336 0-37.4784 10.4448-10.24 27.2384-10.24 37.4784 0l138.6496 138.0352c7.5776 7.5776 9.8304 18.8416 5.7344 28.8768C804.864 340.5824 795.2384 346.9312 784.384 346.9312L784.384 346.9312zM784.384 346.9312" p-id="5880"></path><path d="M391.9872 664.1664c-6.7584 0-13.5168-2.6624-18.8416-7.7824l-138.6496-138.0352c-7.5776-7.5776-9.8304-18.8416-5.7344-28.8768 4.096-9.8304 13.7216-16.384 24.576-16.384l365.7728 0c14.7456 0 26.624 11.8784 26.624 26.4192 0 14.5408-11.8784 26.4192-26.624 26.4192L317.44 525.9264l93.3888 92.9792c10.4448 10.24 10.4448 27.0336 0 37.4784C405.7088 661.504 398.7456 664.1664 391.9872 664.1664L391.9872 664.1664zM391.9872 664.1664" p-id="5881"></path><path d="M460.5952 1016.832c-10.4448 0-20.2752-3.4816-28.2624-10.24l-157.9008-129.2288-188.416 0c-24.7808 0-44.8512-20.0704-44.8512-44.6464L41.1648 44.6464C40.96 20.0704 61.0304 0 85.8112 0L940.032 0c24.7808 0 44.8512 20.0704 44.8512 44.6464l0 788.2752c0 24.576-20.0704 44.6464-44.8512 44.6464L505.6512 877.568l0 94.6176C505.6512 996.7616 485.376 1016.832 460.5952 1016.832zM89.2928 829.44l186.1632 0c10.4448 0 20.48 3.6864 28.4672 10.24l153.1904 125.1328 0-90.7264c0-24.576 20.0704-44.6464 44.8512-44.6464l434.3808 0L936.3456 48.128 89.2928 48.128 89.2928 829.44z" p-id="5882"></path></svg>