<?xml version="1.0" standalone="no"?><!DOCTYPE svg PUBLIC "-//W3C//DTD SVG 1.1//EN" "http://www.w3.org/Graphics/SVG/1.1/DTD/svg11.dtd"><svg t="1513748064359" class="icon" style="" viewBox="0 0 1024 1024" version="1.1" xmlns="http://www.w3.org/2000/svg" p-id="2051" xmlns:xlink="http://www.w3.org/1999/xlink" width="32" height="32"><defs><style type="text/css"></style></defs><path d="M25.6 409.6c-7.68 0-15.36-2.56-20.48-10.24-7.68-10.24-5.12-28.16 5.12-35.84L483.84 12.8c23.04-17.92 53.76-17.92 76.8 0l453.12 350.72c10.24 7.68 12.8 25.6 5.12 35.84-7.68 10.24-25.6 12.8-35.84 5.12L529.92 53.76c-5.12-2.56-10.24-2.56-15.36 0L40.96 404.48C35.84 407.04 30.72 409.6 25.6 409.6z" p-id="2052"></path><path d="M811.52 1024 212.48 1024c-35.84 0-64-28.16-64-64L148.48 289.28c0-15.36 10.24-25.6 25.6-25.6s25.6 10.24 25.6 25.6l0 670.72C199.68 967.68 204.8 972.8 212.48 972.8l599.04 0c7.68 0 12.8-5.12 12.8-12.8L824.32 289.28c0-15.36 10.24-25.6 25.6-25.6s25.6 10.24 25.6 25.6l0 670.72C875.52 995.84 847.36 1024 811.52 1024z" p-id="2053"></path><path d="M632.32 896c-15.36 0-25.6-10.24-25.6-25.6l0-250.88c0-2.56-5.12-5.12-12.8-5.12l-161.28 0c-7.68 0-12.8 5.12-12.8 5.12L419.84 870.4c0 15.36-10.24 25.6-25.6 25.6s-25.6-10.24-25.6-25.6l0-250.88c0-30.72 28.16-56.32 64-56.32l161.28 0c35.84 0 64 25.6 64 56.32L657.92 870.4C657.92 883.2 645.12 896 632.32 896z" p-id="2054"></path></svg>