<?xml version="1.0" standalone="no"?><!DOCTYPE svg PUBLIC "-//W3C//DTD SVG 1.1//EN" "http://www.w3.org/Graphics/SVG/1.1/DTD/svg11.dtd"><svg t="1521794303524" class="icon" style="" viewBox="0 0 1024 1024" version="1.1" xmlns="http://www.w3.org/2000/svg" p-id="4896" xmlns:xlink="http://www.w3.org/1999/xlink" width="300" height="300"><defs><style type="text/css"></style></defs><path d="M512 992c-22.72 0-44.48-7.36-62.912-21.44l-54.528-42.112c-40.96-32-81.856-64.64-120-96.064l-23.616-19.712c-66.752-55.744-112.576-97.728-140.032-128.512C34.24 597.888 0 502.912 0 376.128 0 186.368 139.328 32 310.528 32 384.64 32 456.384 61.568 512 114.176 567.616 61.568 639.36 32 713.408 32 884.672 32 1024 186.368 1024 376.128c0 126.784-34.24 221.76-110.912 307.968-27.264 30.656-73.088 72.704-140.032 128.704l-22.848 19.008c-38.848 32-79.744 64.64-120.64 96.512l-54.016 41.792A103.936 103.936 0 0 1 512 992z m-201.472-896C174.592 96 64 221.632 64 376.128c0 109.952 29.248 191.808 94.72 265.472 25.28 28.288 68.864 68.224 133.248 121.92l23.488 19.584c37.568 30.912 78.08 63.168 118.528 94.784l54.144 41.856a39.296 39.296 0 0 0 48.448-0.448l53.76-41.536a6207.04 6207.04 0 0 0 119.104-95.296l22.656-18.88c64.512-53.888 108.032-93.824 133.12-121.984C930.752 567.936 960 486.08 960 376.128 960 221.632 849.344 96 713.408 96c-67.584 0-130.432 30.336-177.024 85.312L512 210.176l-24.448-28.864C441.024 126.336 378.112 96 310.528 96z" p-id="4897"></path><path d="M735.296 602.624H288.64a32 32 0 0 1 0-64h446.656a32 32 0 0 1 0 64z" p-id="4898"></path><path d="M735.296 595.968a32.128 32.128 0 0 1-24.32-11.2l-80-93.312a32 32 0 0 1 48.64-41.6l80 93.312a32 32 0 0 1-24.32 52.8z" p-id="4899"></path></svg>