<?xml version="1.0" standalone="no"?><!DOCTYPE svg PUBLIC "-//W3C//DTD SVG 1.1//EN" "http://www.w3.org/Graphics/SVG/1.1/DTD/svg11.dtd"><svg t="1515486463760" class="icon" style="" viewBox="0 0 1024 1024" version="1.1" xmlns="http://www.w3.org/2000/svg" p-id="2749" xmlns:xlink="http://www.w3.org/1999/xlink" width="32" height="32"><defs><style type="text/css"></style></defs><path d="M909.733537 953.173908 113.8817 953.173908c-24.453948 0-44.349067-19.894096-44.349067-44.349067L69.532633 112.973004c0-24.453948 19.895119-44.348044 44.349067-44.348044L909.733537 68.62496c24.453948 0 44.349067 19.894096 44.349067 44.348044l0 795.851836C954.081581 933.279812 934.187485 953.173908 909.733537 953.173908zM113.8817 109.557208c-1.820462 0-3.416819 1.596358-3.416819 3.415796l0 795.851836c0 1.819438 1.596358 3.416819 3.416819 3.416819L909.733537 912.24166c1.819438 0 3.416819-1.597381 3.416819-3.416819L913.150356 112.973004c0-1.819438-1.597381-3.415796-3.416819-3.415796L113.8817 109.557208z" p-id="2750"></path><path d="M258.552637 490.432799l506.510986 0 0 40.932248-506.510986 0 0-40.932248Z" p-id="2751"></path><path d="M482.131739 237.177817l40.932248 0 0 506.510986-40.932248 0 0-506.510986Z" p-id="2752"></path></svg>