<?xml version="1.0" standalone="no"?><!DOCTYPE svg PUBLIC "-//W3C//DTD SVG 1.1//EN" "http://www.w3.org/Graphics/SVG/1.1/DTD/svg11.dtd"><svg t="1514974882973" class="icon" style="" viewBox="0 0 1024 1024" version="1.1" xmlns="http://www.w3.org/2000/svg" p-id="1453" xmlns:xlink="http://www.w3.org/1999/xlink" width="32" height="32"><defs><style type="text/css"></style></defs><path d="M379.598631 261.787577l453.316778 0 0 45.329634L379.598631 307.117211 379.598631 261.787577 379.598631 261.787577zM379.598631 387.54537l453.316778 0 0 45.339854L379.598631 432.885225 379.598631 387.54537 379.598631 387.54537zM379.598631 513.323605l453.316778 0 0 45.339854L379.598631 558.663459 379.598631 513.323605 379.598631 513.323605zM414.707377 135.999122l191.549642 0 0 45.339854L414.707377 181.338976 414.707377 135.999122 414.707377 135.999122zM188.059209 261.787577 334.258776 261.787577l0 45.329634L188.059209 307.117211 188.059209 261.787577 188.059209 261.787577zM188.059209 387.54537 334.258776 387.54537l0 45.339854L188.059209 432.885225 188.059209 387.54537 188.059209 387.54537zM188.059209 513.323605 334.258776 513.323605l0 45.339854L188.059209 558.663459 188.059209 513.323605 188.059209 513.323605zM968.904309 618.670287 968.904309 45.339854c0 0 0-45.339854-45.329634-45.339854L97.399942 0C52.060088 0 52.060088 45.339854 52.060088 45.339854l0 933.320291C52.060088 1024 97.399942 1024 97.399942 1024l463.558106 0-45.360296-45.339854L97.399942 978.660146 97.399942 45.339854l826.184954 0 0 527.980357 45.329634 55.570962L968.91453 618.670287zM764.25149 615.13386l-40.607584-0.419056 0 81.59334c0 4.476748 5.539721 16.619162 20.97326 16.619162 12.725004 0 19.859183-12.142414 19.859183-16.619162l-0.122651-36.273928c122.517772 0 158.56684 76.687315 158.56684 158.280655s-58.586124 159.037001-162.072604 159.037001c-81.675108 0-156.757743-77.055267-156.757743-158.648607 0-40.79156 10.435526-79.344745 46.862767-113.339415 3.168475-3.199138 12.346831-23.569365 1.890864-32.195794-9.525867-9.965365-26.748061-3.188917-29.947199 0-21.78071 15.300668-62.602933 63.941869-62.602933 145.760069 0 112.35821 81.664887 203.773823 203.957799 203.773823 122.763073 0 204.438181-81.58312 203.998682-203.773823C968.68967 696.308144 876.752792 615.13386 764.25149 615.13386L764.25149 615.13386zM798.614112 863.460529c21.014144-16.619162 21.514967-45.810015 7.389701-63.665905-13.706209-17.293741-133.914061-98.968848-133.914061-98.968848s47.281823 135.600507 62.827792 155.234831C750.65771 875.909569 777.364888 880.284109 798.614112 863.460529L798.614112 863.460529zM798.614112 863.460529" p-id="1454"></path></svg>