<?xml version="1.0" standalone="no"?><!DOCTYPE svg PUBLIC "-//W3C//DTD SVG 1.1//EN" "http://www.w3.org/Graphics/SVG/1.1/DTD/svg11.dtd"><svg t="1513749364219" class="icon" style="" viewBox="0 0 1024 1024" version="1.1" xmlns="http://www.w3.org/2000/svg" p-id="13720" xmlns:xlink="http://www.w3.org/1999/xlink" width="32" height="32"><defs><style type="text/css"></style></defs><path d="M512 992C247.042 992 32 776.958 32 512S247.042 32 512 32s480 215.042 480 480-215.042 480-480 480z m341.392-646.429c-24.969 8.319-54.092-8.319-62.422-33.287-8.319-29.123 8.319-58.256 37.453-62.422h4.165c-66.597-79.039-158.077-133.13-266.292-145.614 0 0-1.173 26.809-1.173 59.301s-39.132 38.347-52.918 38.347-50.583-9.59-50.583-44.212 0.646-57.6 0.646-57.6c-104.017 12.485-206.314 73.184-272.889 148.068l20.201 11.537c19.373 12.915 37.13 37.13 17.758 69.417-17.963 29.941-60.442 16.478-60.442 16.478l-25.119-13.13C112.654 390.7 96.155 445.458 96.155 512.012c0 212.201 159.186 386.948 363.067 411.918v-49.937c0-29.123 24.967-49.927 54.092-49.927s49.927 24.967 49.927 49.927v49.927c203.827-24.958 360.882-199.717 360.882-411.907 0-62.422-16.639-124.843-41.607-178.913l-29.123 12.485z m-295.264-64.574V231.07C677.17 250.27 773.17 346.227 792.37 465.312h-49.927c-15.358-92.158-88.315-165.115-184.315-184.315z m98.151 233.166c0 80.642-65.285 142.063-142.063 142.063-80.642 0-145.915-65.285-145.915-142.063v-0.075c0-80.551 65.3-145.852 145.852-145.852 80.642 0 142.063 65.285 142.063 145.915zM512.065 416.01c-53.812 0-96 42.242-96 96s42.242 96 96 96 96-42.242 96-96-42.253-96-96.065-96z m-234.264 49.917h-49.927c19.2-119.042 115.157-215.042 234.242-234.242v46.085c-92.18 19.2-165.115 92.158-184.315 188.158z m183.864 274.934v46.085c-119.042-19.2-215.042-115.157-234.242-234.242h49.958c15.358 96 88.315 168.967 184.315 188.158z m284.62-188.621H796.2C777 671.282 680.968 767.282 561.967 786.515v-46.117c92.158-23.042 165.115-96 184.315-188.158z" p-id="13721"></path></svg>