<?xml version="1.0" standalone="no"?><!DOCTYPE svg PUBLIC "-//W3C//DTD SVG 1.1//EN" "http://www.w3.org/Graphics/SVG/1.1/DTD/svg11.dtd"><svg t="1522651397680" class="icon" style="" viewBox="0 0 1024 1024" version="1.1" xmlns="http://www.w3.org/2000/svg" p-id="6265" xmlns:xlink="http://www.w3.org/1999/xlink" width="300" height="300"><defs><style type="text/css"></style></defs><path d="M512 64.512q92.16 0 173.568 34.816t142.336 95.744 95.744 142.336 34.816 173.568-34.816 173.568-95.744 142.336-142.336 95.744-173.568 34.816-174.08-34.816-142.336-95.744-95.744-142.336-35.328-173.568 35.328-173.568 95.744-142.336 142.336-95.744 174.08-34.816zM707.584 574.464q29.696 0 49.664-18.432t19.968-47.104q0-29.696-19.968-46.08t-49.664-16.384l-392.192 0q-29.696 0-49.664 16.384t-19.968 46.08q0 28.672 19.968 47.104t49.664 18.432l392.192 0z" p-id="6266"></path></svg>