<?xml version="1.0" standalone="no"?><!DOCTYPE svg PUBLIC "-//W3C//DTD SVG 1.1//EN" "http://www.w3.org/Graphics/SVG/1.1/DTD/svg11.dtd"><svg t="1513748988016" class="icon" style="" viewBox="0 0 1024 1024" version="1.1" xmlns="http://www.w3.org/2000/svg" p-id="9608" xmlns:xlink="http://www.w3.org/1999/xlink" width="32" height="32"><defs><style type="text/css"></style></defs><path d="M378.69568 488.39168h23.95136V303.95392H40.96v421.57056h361.68704v-179.65056h-23.95136V488.39168z m-43.11552 170.0608H105.472V371.02592h230.10816v287.42656z" p-id="9609"></path><path d="M460.1344 131.49696v356.89472H378.69568v57.48224H460.1344v356.89984h177.24928v-52.69504h-117.36576v-304.2048h117.36576V488.39168h-117.36576V188.98432h117.36576V131.49696z" p-id="9610"></path><path d="M934.4 303.95392V8.81152h-297.01632V303.95392H934.4z m-241.92512-234.73664h184.43776v179.64544h-184.43776V69.21728z" p-id="9611"></path><path d="M637.38368 662.30784H934.4V367.17056h-297.01632v295.13728z m55.0912-234.73152h184.43776v179.64544h-184.43776V427.57632z" p-id="9612"></path><path d="M637.38368 1024H934.4v-295.14752h-297.01632V1024z m55.0912-234.74176h184.43776v179.64544h-184.43776v-179.64544z" p-id="9613"></path></svg>