<?xml version="1.0" standalone="no"?><!DOCTYPE svg PUBLIC "-//W3C//DTD SVG 1.1//EN" "http://www.w3.org/Graphics/SVG/1.1/DTD/svg11.dtd"><svg t="1514974810476" class="icon" style="" viewBox="0 0 1024 1024" version="1.1" xmlns="http://www.w3.org/2000/svg" p-id="6004" xmlns:xlink="http://www.w3.org/1999/xlink" width="32" height="32"><defs><style type="text/css"></style></defs><path d="M760.396753 215.64807 757.197359 212.36978C694.164945 148.067235 607.584116 108.318161 511.994228 108.318161 416.515724 108.318161 329.991494 147.980986 266.975372 212.180387L263.420881 215.837463C201.305879 280.983878 162.909091 370.348591 162.909091 469.038499 162.909091 567.814703 201.362479 657.267665 263.604177 722.415057L266.791098 725.694371 512.006703 979.112541 757.393129 725.563485 760.226909 722.605475C822.567471 657.430295 861.090909 567.919802 861.090909 469.0405 861.091887 370.276212 822.63943 280.824227 760.396753 215.64807L760.396753 215.64807ZM512.00768 571.546159C444.549399 571.546159 389.86482 515.024849 389.86482 445.331875 389.86482 416.524335 399.171305 390.020329 414.852655 368.790761 437.173713 338.585041 472.384512 319.088826 512.00768 319.088826 579.466892 319.088826 634.15054 375.62503 634.15054 445.332852 634.15054 515.024849 579.466892 571.546159 512.00768 571.546159L512.00768 571.546159Z" p-id="6005"></path></svg>