<?xml version="1.0" standalone="no"?><!DOCTYPE svg PUBLIC "-//W3C//DTD SVG 1.1//EN" "http://www.w3.org/Graphics/SVG/1.1/DTD/svg11.dtd"><svg t="1526261235531" class="icon" style="" viewBox="0 0 1024 1024" version="1.1" xmlns="http://www.w3.org/2000/svg" p-id="3767" xmlns:xlink="http://www.w3.org/1999/xlink" width="48" height="48"><defs><style type="text/css"></style></defs><path d="M64 512c0 247.039 200.961 448 448 448s448-200.961 448-448S759.039 64 512 64 64 264.961 64 512zM355.135 501.149c0.033-0.127 0.193-0.256 0.256-0.384 1.536-3.616 3.649-7.072 6.592-10.048 0.033-0.031 0.065-0.031 0.096-0.064s0.031-0.064 0.064-0.096l158.912-159.359c12.48-12.511 32.735-12.576 45.248-0.064 12.511 12.48 12.544 32.735 0.064 45.248L430.079 513.055l137.408 135.904c12.576 12.447 12.673 32.672 0.256 45.248-6.239 6.336-14.496 9.504-22.751 9.504-8.128 0-16.258-3.103-22.497-9.248L362.24 535.968C352.768 526.592 350.399 512.767 355.135 501.149z" p-id="3768"></path></svg>