<?xml version="1.0" standalone="no"?><!DOCTYPE svg PUBLIC "-//W3C//DTD SVG 1.1//EN" "http://www.w3.org/Graphics/SVG/1.1/DTD/svg11.dtd"><svg t="1514974771920" class="icon" style="" viewBox="0 0 1024 1024" version="1.1" xmlns="http://www.w3.org/2000/svg" p-id="5505" xmlns:xlink="http://www.w3.org/1999/xlink" width="32" height="32"><defs><style type="text/css"></style></defs><path d="M595.2 272.4c47-42.6 91.7-88.1 142.2-126.1 28.7-33.9 55.5-16.1 71.1-5.1 53.1 37.5 121.8 98.1 149.9 125.9 46.7 44.8-59.6 32.2-89.9 39.3v412.7c0 116.5-0.1 116.5-101 116.4-96.6-0.1-96.7-0.1-96.7-112.3 0-116.6-0.1-233.2 0-349.8-0.9-53.5 24.7-86-77.7-72.5-18.6-0.9-43.6 9.6 2.1-28.5zM597.1 669v39.5c0 128.9-19.4 129.7-158.8 124.2-25.9 1.7-52.7-14.7-54.2-54.7-1.1-77.3-3-154.5 4.1-230.1 1.9-20.2 35.4-43.9 59.4-53.6 22.6-9.2 52-0.4 78.1-2.5 55.6-4.6 76.3 20.8 71.8 74.7-2.7 33.9-0.4 68.3-0.4 102.5zM1004 951.5H16.1c-0.1-6.5-0.1-13-0.2-19.6h985.6c0.8 6.6 1.7 13.1 2.5 19.6zM213.3 834.4c-86 1.5-104.7 0-102.1-97.4 0-97 7.5-100.6 99.1-99.9 99 4.7 97.3 3.1 102.4 103-1.7 77.9-18.4 95.7-99.4 94.3z"  p-id="5506"></path></svg>