<?xml version="1.0" standalone="no"?><!DOCTYPE svg PUBLIC "-//W3C//DTD SVG 1.1//EN" "http://www.w3.org/Graphics/SVG/1.1/DTD/svg11.dtd"><svg t="1526466004819" class="icon" style="" viewBox="0 0 1024 1024" version="1.1" xmlns="http://www.w3.org/2000/svg" p-id="2036" xmlns:xlink="http://www.w3.org/1999/xlink" width="200" height="200"><defs><style type="text/css"></style></defs><path d="M515.072 677.376c-78.848-1.536-127.488 1.536-221.696 25.6h1.024c1.024 0.512 0 0.512 0 1.024 18.432 148.48 87.04 207.872 216.064 197.12 156.672-12.8 173.056-43.008 203.776-188.416 0-3.072 3.072-13.312 3.072-12.8-86.528-16.896-150.016-21.504-202.24-22.528z m-7.68 190.464c-51.2 0-78.848-37.376-78.848-78.848 0-39.936 34.816-74.24 78.848-74.24 51.2 0 77.824 44.032 78.336 74.24 1.536 37.376-27.648 78.848-78.336 78.848z m0-117.248c-24.064 0-43.52 19.456-43.52 43.52s19.456 43.52 43.52 43.52 43.52-19.456 43.52-43.52c0-23.552-19.456-43.52-43.52-43.52z" fill="" p-id="2037"></path><path d="M795.136 686.592c-8.192-235.008-134.656-408.576-289.28-408.576-152.576 0-277.504 181.248-289.28 411.136 74.24-16.896 85.504-48.128 289.28-50.176 200.192-1.536 219.648 27.136 289.28 47.616z" fill="" p-id="2038"></path><path d="M777.728 710.656c-7.68-221.184-126.976-384.512-272.384-384.512-143.36 0-261.12 170.496-271.872 387.072 70.144-15.872 80.384-45.056 271.872-47.104 188.928-2.048 207.36 24.576 272.384 44.544z" fill="" p-id="2039"></path><path d="M815.104 665.6c-8.704-222.72-143.872-387.072-309.76-387.072-163.328 0-296.96 172.032-309.248 389.632 79.872-16.384 91.648-45.568 309.248-47.104 214.528-2.048 235.52 25.088 309.76 44.544zM686.08 800.768c0 58.368-79.872 119.808-178.176 119.808s-178.176-60.928-178.176-119.808c0-58.368 100.864 91.648 199.68 91.648S686.08 742.4 686.08 800.768z" fill="" p-id="2040"></path><path d="M508.928 372.736h-9.216c-35.84 0-65.024-29.184-65.024-65.024v-35.328c0-35.84 29.184-65.024 65.024-65.024h9.216c35.84 0 65.024 29.184 65.024 65.024v35.328c0 35.84-29.184 65.024-65.024 65.024z" fill="" p-id="2041"></path></svg>