<?xml version="1.0" standalone="no"?><!DOCTYPE svg PUBLIC "-//W3C//DTD SVG 1.1//EN" "http://www.w3.org/Graphics/SVG/1.1/DTD/svg11.dtd"><svg t="1514974902374" class="icon" style="" viewBox="0 0 1025 1024" version="1.1" xmlns="http://www.w3.org/2000/svg" p-id="1870" xmlns:xlink="http://www.w3.org/1999/xlink" width="32.03125" height="32"><defs><style type="text/css"></style></defs><path d="M510.46875 65.3125c119.0625 0 221.25 110.625 221.25 255.15625 0 102.1875-136.09375 314.84375-221.25 425.46875-85-110.625-221.25-323.28125-221.25-425.46875C289.21875 175.9375 391.40625 65.3125 510.46875 65.3125M510.46875 22.8125c-144.6875 0-263.75 136.09375-263.75 297.8125 0 161.71875 263.75 493.4375 263.75 493.4375s263.75-331.875 263.75-493.4375C774.21875 158.90625 655 22.8125 510.46875 22.8125L510.46875 22.8125 510.46875 22.8125 510.46875 22.8125zM990 1001.25 34.0625 1001.25C17.03125 1001.25 0 984.21875 0 967.1875L0 456.71875c0-17.03125 17.03125-34.0625 34.0625-34.0625l136.09375 0c17.03125 0 34.0625 17.03125 34.0625 34.0625 0 17.03125-17.03125 34.0625-34.0625 34.0625L59.53125 490.78125l0 450.9375 896.5625 0L956.09375 490.78125l-102.1875 0c-17.03125 0-34.0625-17.03125-34.0625-34.0625 0-17.03125 17.03125-34.0625 34.0625-34.0625l136.09375 0c17.03125 0 34.0625 17.03125 34.0625 34.0625L1024.0625 967.1875C1024.0625 984.21875 1006.875 1001.25 990 1001.25L990 1001.25 990 1001.25 990 1001.25z" p-id="1871"></path><path d="M510.4 135.2c-84 0-151.2 68-151.2 151.2 0 84 68 151.2 151.2 151.2s151.2-68 151.2-151.2S593.6 135.2 510.4 135.2zM510.4 396.8c-61.6 0-111.2-49.6-111.2-111.2s49.6-111.2 111.2-111.2 111.2 49.6 111.2 111.2S571.2 396.8 510.4 396.8z" p-id="1872"></path></svg>