<?xml version="1.0" standalone="no"?><!DOCTYPE svg PUBLIC "-//W3C//DTD SVG 1.1//EN" "http://www.w3.org/Graphics/SVG/1.1/DTD/svg11.dtd"><svg t="1514974828147" class="icon" style="" viewBox="0 0 1024 1024" version="1.1" xmlns="http://www.w3.org/2000/svg" p-id="6127" xmlns:xlink="http://www.w3.org/1999/xlink" width="32" height="32"><defs><style type="text/css"></style></defs><path d="M369.777778 493.027556c0-34.446222 17.351111-88.433778 48.810667-107.861333s88.974222-10.097778 119.779556 5.319111l48.839111 24.405333C620.942222 431.758222 654.222222 471.694222 654.222222 512s-40.391111 83.768889-74.126222 100.664889l-45.511111 22.755556c-30.833778 15.416889-84.536889 22.869333-115.996444 3.441778C387.128889 619.406222 369.777778 566.584889 369.777778 532.138667L369.777778 493.027556z" p-id="6128"></path><path d="M466.318222 768c-36.608 0-72.846222-9.443556-104.732444-27.335111C296.448 704.227556 256 636.131556 256 562.972444l0-101.944889c0-73.159111 40.448-141.255111 105.585778-177.720889 64-35.896889 146.232889-35.640889 209.806222 0l91.022222 50.972444c96.682667 60.387556 128.682667 95.943111 141.141333 188.387556 7.111111 52.849778-76.003556 130.588444-141.141333 167.054222l-91.022222 50.944C539.477333 758.556444 503.153778 768 466.318222 768zM466.318222 312.888889c-26.908444 0-53.504 6.940444-76.942222 20.081778C342.186667 359.367111 312.888889 408.433778 312.888889 461.027556l0 101.944889c4.750222 66.360889 29.297778 101.660444 76.458667 128.056889 37.319111 22.442667 107.576889 26.168889 154.254222 0.028444l91.022222-50.972444c47.189333-26.424889 84.280889-75.662222 80.042667-128.085333-5.347556-65.792-32.853333-101.660444-80.014222-128.085333l-91.022222-50.972444C520.163556 319.829333 493.454222 312.888889 466.318222 312.888889z" p-id="6129"></path><path d="M457.841778 874.666667c-53.816889 0-107.036444-13.966222-153.912889-40.391111-95.345778-53.731556-154.595556-153.941333-154.595556-261.518222l0-121.486222c0-107.605333 11.320889-181.845333 106.666667-235.576889 94.065778-53.020444 262.826667-78.648889 356.323556-25.969778l107.776 60.728889c95.374222 53.731556 207.985778 143.530667 225.678222 278.129778 10.666667 81.180444-130.304 191.232-225.678222 244.935111l-107.776 60.757333C565.390222 860.700444 512 874.666667 457.841778 874.666667zM457.841778 192c-46.506667 0-119.096889 29.240889-159.601778 52.081778-81.948444 46.165333-106.24 114.972444-106.24 207.189333l0 121.486222c0 92.216889 50.915556 178.204444 132.864 224.369778 81.294222 45.852444 185.742222 45.511111 266.496 0l107.776-60.757333C781.084444 690.204444 888.888889 597.333333 881.777778 535.694222c-11.776-101.944889-121.742222-204.629333-182.641778-248.064L591.36 226.901333C550.826667 204.060444 504.661333 192 457.841778 192z" p-id="6130"></path></svg>