<?xml version="1.0" standalone="no"?><!DOCTYPE svg PUBLIC "-//W3C//DTD SVG 1.1//EN" "http://www.w3.org/Graphics/SVG/1.1/DTD/svg11.dtd"><svg t="1516266522477" class="icon" style="" viewBox="0 0 1025 1024" version="1.1" xmlns="http://www.w3.org/2000/svg" p-id="1385" xmlns:xlink="http://www.w3.org/1999/xlink" width="32.03125" height="32"><defs><style type="text/css"></style></defs><path d="M273.938797 625.774479c-14.136452 0-25.594676-11.459248-25.594676-25.594676l0-358.751364c0-30.787324 15.917841-58.35791 42.581351-73.751572 26.662486-15.393662 58.499192-15.394686 85.161678 0l173.710044 100.291203c12.241422 7.067202 16.435877 22.720906 9.367652 34.962328-7.066178 12.240398-22.717835 16.436901-34.962328 9.367652l-173.710044-100.291203c-15.332235-8.851663-28.864652-2.948507-33.972326 0-5.107674 2.94953-16.986675 11.718267-16.986675 29.420569l0 358.751364C299.533473 614.314207 288.073201 625.774479 273.938797 625.774479z" p-id="1386"></path><path d="M333.505799 867.869403c-14.624798 0-29.249596-3.848416-42.581351-11.545247-26.66351-15.393662-42.581351-42.964247-42.581351-73.751572 0-14.135428 11.459248-25.594676 25.594676-25.594676s25.594676 11.459248 25.594676 25.594676c0 17.702302 11.879001 26.471038 16.986675 29.420569s18.642138 8.851663 33.972326 0l468.644666-270.571561c15.331211-8.851663 16.986675-23.523555 16.986675-29.420569 0-5.897013-1.65444-20.569929-16.986675-29.421592l-153.418585-88.577032c-12.241422-7.067202-16.436901-22.720906-9.367652-34.962328 7.067202-12.241422 22.720906-16.436901 34.962328-9.367652l153.418585 88.577032c26.66351 15.394686 42.581351 42.966295 42.581351 73.753619 0 30.7863-15.918865 58.35791-42.581351 73.750548l-468.644666 270.571561C362.755395 864.022011 348.130597 867.869403 333.505799 867.869403z" p-id="1387"></path><path d="M152.483867 814.893542c-3.930318 0-7.860637-1.499848-10.858285-4.49852-5.997345-5.996321-5.997345-15.72025 0-21.717595l599.814311-599.814311c5.996321-5.996321 15.72025-5.996321 21.717595 0 5.997345 5.996321 5.997345 15.72025 0 21.717595l-599.814311 599.814311C160.344504 813.393694 156.414186 814.893542 152.483867 814.893542z" p-id="1388"></path></svg>