<?xml version="1.0" standalone="no"?><!DOCTYPE svg PUBLIC "-//W3C//DTD SVG 1.1//EN" "http://www.w3.org/Graphics/SVG/1.1/DTD/svg11.dtd"><svg t="1525746466850" class="icon" style="" viewBox="0 0 1024 1024" version="1.1" xmlns="http://www.w3.org/2000/svg" p-id="10899" xmlns:xlink="http://www.w3.org/1999/xlink" width="32" height="32"><defs><style type="text/css"></style></defs><path d="M742.594 76.644l-659.853 0c-9.612 0-17.405 7.792-17.405 17.404l0 858.098c0 9.612 7.793 17.404 17.405 17.404l858.134 0c9.612 0 17.405-7.792 17.405-17.404l0-663.197-215.685-212.305zM177.023 211.388c0-9.612 7.793-17.404 17.405-17.404l440.024 0c9.612 0 17.405 7.792 17.405 17.404l0 103.679c0 9.612-7.793 17.404-17.405 17.404l-440.024 0c-9.612 0-17.405-7.792-17.405-17.404l0-103.679zM846.976 841.52c0 9.612-7.793 17.404-17.405 17.404l-635.143 0c-9.612 0-17.405-7.792-17.405-17.404l0-311.287c0-9.612 7.793-17.404 17.405-17.404l635.143 0c9.612 0 17.405 7.792 17.405 17.404l0 311.287zM789.354 563.887c0-7.654-6.225-13.878-13.93-13.878l-83.447 0c-7.705 0-13.93 6.223-13.93 13.878l0 83.132c0 7.676 6.224 13.878 13.93 13.878l83.447 0c7.704 0 13.93-6.201 13.93-13.878l0-83.132z" p-id="10900"></path></svg>