<?xml version="1.0" standalone="no"?><!DOCTYPE svg PUBLIC "-//W3C//DTD SVG 1.1//EN" "http://www.w3.org/Graphics/SVG/1.1/DTD/svg11.dtd"><svg t="1516591556703" class="icon" style="" viewBox="0 0 2145 1024" version="1.1" xmlns="http://www.w3.org/2000/svg" p-id="1311" xmlns:xlink="http://www.w3.org/1999/xlink" width="418.9453125" height="200"><defs><style type="text/css"></style></defs><path d="M1292.50211161 200.14809111h463.24802505l-1106.65055748 1329.69331642 368.88352002-936.30415688H606.2113301L1017.9830992-511.88869729h797.82003983zM4362.74206006-940.81846876zM4355.59476686-940.81846876a7.14503961 7.14503961 0 1 0 14.2923328 0.0022511 7.14503961 7.14503961 0 0 0-14.2923328-0.0022511z" p-id="1312"></path><path d="M4824.91952-695.72121573a8.04492291 8.04492291 0 1 0 16.08984813 0 8.04492291 8.04492291 0 0 0-16.08984813 0zM4832.96655565-695.72121573l2.42065046-19.7408739z" p-id="1313"></path><path d="M4816.88514916-695.72121573a16.08140412 16.08140412 0 0 0 16.0835169 16.08351686 16.08140412 16.08140412 0 0 0 16.08351456-16.08351686 16.08140412 16.08140412 0 0 0-16.08351456-16.08351456c-8.88487115 0-16.08351456 7.20075618-16.0835169 16.08351456z" p-id="1314"></path><path d="M4824.91952-695.72121573a8.04492291 8.04492291 0 1 0 16.08984813 0 8.04492291 8.04492291 0 0 0-16.08984813 0z" p-id="1315"></path><path d="M4826.26596827-695.72121573a6.69847463 6.69847463 0 1 0 13.39906202 0.0021104 6.69847463 6.69847463 0 0 0-13.39906202-0.0021104zM4832.96655565-695.72121573l2.42065046-19.7408739z" p-id="1316"></path></svg>