<?xml version="1.0" standalone="no"?><!DOCTYPE svg PUBLIC "-//W3C//DTD SVG 1.1//EN" "http://www.w3.org/Graphics/SVG/1.1/DTD/svg11.dtd"><svg t="1514974765091" class="icon" style="" viewBox="0 0 1024 1024" version="1.1" xmlns="http://www.w3.org/2000/svg" p-id="5377" xmlns:xlink="http://www.w3.org/1999/xlink" width="32" height="32"><defs><style type="text/css"></style></defs><path d="M685.858 205.952h-437.581c-10.598 0-19.2 8.602-19.2 19.2s8.602 19.2 19.2 19.2h437.606c10.598 0 19.2-8.602 19.2-19.2s-8.627-19.2-19.226-19.2z" p-id="5378"></path><path d="M705.058 362.752c0-10.598-8.602-19.2-19.2-19.2h-437.581c-10.598 0-19.2 8.602-19.2 19.2s8.602 19.2 19.2 19.2h437.606c10.573 0 19.174-8.602 19.174-19.2z" p-id="5379"></path><path d="M248.252 481.152c-10.598 0-19.2 8.602-19.2 19.2s8.602 19.2 19.2 19.2h280.832c10.598 0 19.2-8.602 19.2-19.2s-8.602-19.2-19.2-19.2l-280.832-0z" p-id="5380"></path><path d="M468.258 618.752h-220.006c-10.598 0-19.2 8.602-19.2 19.2s8.602 19.2 19.2 19.2h220.006c10.598 0 19.2-8.602 19.2-19.2s-8.602-19.2-19.2-19.2z" p-id="5381"></path><path d="M897.596 814.746h-49.152l-95.923-134.221c39.475-13.901 67.994-51.174 67.994-95.334 0-55.962-45.491-101.478-101.453-101.478s-101.453 45.517-101.453 101.478c0 44.16 28.544 81.434 67.994 95.334l-95.949 134.221h-49.126c-24.704 0-44.8 20.096-44.8 44.8v72.166c0 24.704 20.096 44.8 44.8 44.8h357.043c24.704 0 44.8-20.096 44.8-44.8v-72.166c0.026-24.704-20.070-44.8-44.774-44.8zM656.009 585.19c0-34.765 28.262-63.078 63.053-63.078s63.053 28.288 63.053 63.078c0 34.56-27.955 62.669-62.464 63.002-0.41 0-0.768 0-1.178 0-34.483-0.333-62.464-28.416-62.464-63.002zM713.173 708.045l11.29-0.717 76.774 107.418h-164.352l76.288-106.701zM903.996 931.738c0 3.482-2.918 6.4-6.4 6.4h-357.043c-3.482 0-6.4-2.918-6.4-6.4v-72.166c0-3.482 2.918-6.4 6.4-6.4h357.069c3.482 0 6.4 2.918 6.4 6.4v72.166z" p-id="5382"></path><path d="M157.858 851.2v-752c0-3.482 2.918-6.4 6.4-6.4h611.2c3.482 0 6.4 2.918 6.4 6.4v361.19c14.413 7.27 27.366 16.947 38.4 28.544v-389.734c0-24.704-20.096-44.8-44.8-44.8l-611.2-0c-24.704 0-44.8 20.096-44.8 44.8l-0 752c0 24.704 20.096 44.8 44.8 44.8h293.069v-36.454c0-0.666 0.179-1.28 0.205-1.946h-293.274c-3.456 0-6.4-2.918-6.4-6.4z" p-id="5383"></path></svg>