<?xml version="1.0" standalone="no"?><!DOCTYPE svg PUBLIC "-//W3C//DTD SVG 1.1//EN" "http://www.w3.org/Graphics/SVG/1.1/DTD/svg11.dtd"><svg t="1513749255405" class="icon" style="" viewBox="0 0 1024 1024" version="1.1" xmlns="http://www.w3.org/2000/svg" p-id="12135" xmlns:xlink="http://www.w3.org/1999/xlink" width="32" height="32"><defs><style type="text/css"></style></defs><path d="M890.160364 1024 127.173446 1024C56.958293 1024 0.00384 967.045547 0.00384 896.799674l0-763.283875C0.00384 63.259686 57.777487 0.273918 128.02336 0.273918l511.99616 0 0 63.97904-511.99616 0c-35.122937 0-64.429597 34.119424-64.429597 69.252601l0 763.294115c0 35.102457 28.466986 63.579683 63.579683 63.579683L890.160364 960.379357c35.081977 0 69.815796-29.234981 69.815796-64.337437L959.97616 384.178879 1023.99616 384.178879l0 511.863041C1023.99616 966.298033 960.355037 1024 890.160364 1024L890.160364 1024zM510.115854 715.757832c-9.27737 9.29785-20.940643 13.957015-32.941833 16.301958L198.801709 869.725317c-31.323925 14.520211-56.411737-13.537178-44.881583-44.881583l137.614328-278.515671c2.344942-12.00119 6.983628-23.643983 16.291718-32.941833L802.373502 18.62386c24.821574-24.831814 65.064472-24.831814 89.916766 0l112.362677 112.434357c24.842054 24.831814 24.842054 65.115672 0 89.947485L510.115854 715.757832 510.115854 715.757832zM214.827189 786.362102c-7.270345 14.66357 6.768589 29.695777 22.404952 22.435672L409.150211 704.719195l-90.275163-90.336602L214.827189 786.362102 214.827189 786.362102zM375.256066 580.846844l67.429894 67.460614c12.421027 12.421027-19.650413-19.681132 22.486871 22.456152l359.656823-359.789942L711.637543 199.338025 352.779434 558.319013C364.719185 570.279243 362.855519 568.425817 375.256066 580.846844L375.256066 580.846844zM937.233291 153.565568l-67.440134-67.470854c-12.400547-12.441507-32.542476-12.441507-44.963503 0l-65.822226 65.842706 110.755009 114.062505 67.440134-67.470854C949.654318 186.097804 949.654318 165.966115 937.233291 153.565568L937.233291 153.565568zM937.233291 153.565568" p-id="12136"></path></svg>