<?xml version="1.0" standalone="no"?><!DOCTYPE svg PUBLIC "-//W3C//DTD SVG 1.1//EN" "http://www.w3.org/Graphics/SVG/1.1/DTD/svg11.dtd"><svg t="1513749110024" class="icon" style="" viewBox="0 0 1024 1024" version="1.1" xmlns="http://www.w3.org/2000/svg" p-id="10763" xmlns:xlink="http://www.w3.org/1999/xlink" width="32" height="32"><defs><style type="text/css"></style></defs><path d="M177.37728 942.92992c-34.21184 0-47.09888-12.90752-47.09888-47.10912V182.9632c0-34.39616 16.3584-43.63776 50.57024-43.63776h60.78976c11.46368 0 24.18176-14.51008 24.18176-32.27136 0-13.83424-9.344-32.27136-23.01952-32.27136H156.56448c-57.13408 0-90.83904 33.69984-90.83904 90.84416V911.8208c0 57.1392 36.00896 90.83904 90.83904 90.83904h319.88736s-30.1056-32.41472-43.32032-59.73504H177.37728v0.00512m0 0zM717.27616 139.32544h69.29408c34.21696 0 43.63264 11.74528 43.63264 45.96224v248.72448c14.42304 7.02976 49.11104 24.22784 62.22848 33.10592V165.62688c0-57.14432-33.69472-90.83904-90.83904-90.83904h-84.3264c-13.80864 0-24.18688 18.81088-24.18688 33.42336 0.01024 16.21504 12.73344 31.11424 24.19712 31.11424m0 0z" p-id="10764"></path><path d="M223.47264 249.26208c0 25.70752 17.24416 48.73728 42.95168 48.73728h425.32352c25.5232 0 42.9568-23.01952 42.9568-48.73728 0-25.70752-17.23904-48.72704-42.9568-48.72704H602.9824V95.12448c0-40.86784-33.1008-73.96864-73.96352-73.96864H429.15328c-40.86784 0-73.96864 33.09568-73.96864 73.96864v105.41056H266.42432c-25.70752 0-42.95168 23.01952-42.95168 48.72704M479.0784 67.38432c27.00288 0 49.00864 22.01088 49.00864 49.00864 0 26.99264-22.00576 49.00352-49.00864 49.00352-26.98752 0-48.99328-22.01088-48.99328-49.00352 0-26.99776 22.00064-49.00864 48.99328-49.00864m0 0z m148.55168 340.92032h-361.216c-25.70752 0-42.95168 23.01952-42.95168 48.72704s17.24928 48.73728 42.95168 48.73728h188.99968c44.7488-45.49632 107.85792-82.85696 172.21632-97.46432m0 0zM223.47264 659.0976c0 25.70752 16.08192 48.73728 41.78432 48.73728h109.23008c4.81792-35.25632 14.34624-69.93408 36.9664-97.4592H266.41408c-25.69728-0.00512-42.94144 23.01952-42.94144 48.72192m0 0z m480.71168-164.43392c-140.34944 0-254.09024 113.73056-254.09024 254.09024 0 140.35456 113.73568 254.09024 254.09024 254.09024 140.35968 0 254.09024-113.73568 254.09024-254.09024 0-140.35968-113.73056-254.09024-254.09024-254.09024m176.05632 193.43872L685.14304 883.2c-6.29248 6.29248-14.61248 9.43104-22.93248 9.43104s-16.64-3.13856-22.93248-9.43104l-110.9504-110.95552c-12.57984-12.57472-12.57984-33.1008 0-45.67552 12.57472-12.57984 33.1008-12.57984 45.68064 0l88.21248 88.20736 172.16512-172.16512c12.57472-12.57472 33.10592-12.57472 45.68064 0 12.93312 12.38528 12.93312 32.91136 0.17408 45.4912m0 0z" p-id="10765"></path></svg>