<?xml version="1.0" standalone="no"?><!DOCTYPE svg PUBLIC "-//W3C//DTD SVG 1.1//EN" "http://www.w3.org/Graphics/SVG/1.1/DTD/svg11.dtd"><svg t="1521794218673" class="icon" style="" viewBox="0 0 1024 1024" version="1.1" xmlns="http://www.w3.org/2000/svg" p-id="4587" xmlns:xlink="http://www.w3.org/1999/xlink" width="300" height="300"><defs><style type="text/css"></style></defs><path d="M445.795 624.472h-90.489v75.894l34.179-4.032v-0.192c0-6.398 2.37-12.529 6.673-17.265a25.618 25.618 0 0 1 16.549-8.288l33.088-3.162v-42.955zM575.779 655.002l17.42-1.665v-28.865h-17.42z" fill="#F7F7F7" p-id="4588"></path><path d="M535.779 155.095c0-15.665-11.211-28.41-24.992-28.41-13.78 0-24.992 12.745-24.992 28.41V194h49.984v-38.905zM485.795 950.765h49.984V799.186l-49.984 4.777zM535.779 658.825v-142.14h-49.984v146.918zM813.163 704.648l-29.901-29.294-353.777 33.813v59.996l352.187-33.661z" fill="#FFFFFF" p-id="4589"></path><path d="M790.515 774.839a25.512 25.512 0 0 0 8.378-2.273 25.592 25.592 0 0 0 7.152-4.944l45.559-44.636c4.897-4.798 7.706-11.481 7.706-18.337s-2.809-13.539-7.706-18.336l-45.111-44.197a25.46 25.46 0 0 0-9.399-5.86 25.708 25.708 0 0 0-11.005-1.354L633.2 649.514v-39.373c0-6.853-2.668-13.296-7.523-18.157-4.849-4.844-11.293-7.512-18.146-7.512H575.78v-67.787h231.775c6.095 0 11.826-2.372 16.147-6.688a22.684 22.684 0 0 0 6.688-16.146V219.669c0-6.855-2.669-13.3-7.521-18.153-4.849-4.847-11.294-7.516-18.148-7.516H575.779v-38.905c0-37.721-29.155-68.41-64.992-68.41-35.836 0-64.992 30.688-64.992 68.41V194H324.811c-3.915 0-7.84 0.915-11.368 2.654a25.817 25.817 0 0 0-9.004 7.398l-104.01 135.675c-3.416 4.456-5.296 10.002-5.296 15.616s1.881 11.16 5.297 15.617l104.009 135.674a25.828 25.828 0 0 0 9.019 7.404 25.816 25.816 0 0 0 11.352 2.646h120.985v67.787h-104.82c-6.854 0-13.3 2.669-18.154 7.521-4.846 4.849-7.515 11.293-7.515 18.147v106.346a25.678 25.678 0 0 0 8.611 19.18 25.633 25.633 0 0 0 20.066 6.312l45.502-5.368v48.318a25.718 25.718 0 0 0 8.406 18.997 25.61 25.61 0 0 0 19.705 6.556l28.199-2.695v142.979h-36.31c-11.045 0-20 8.954-20 20s8.955 20 20 20H810.39c11.046 0 20-8.954 20-20s-8.954-20-20-20H575.78V795.362l214.735-20.523zM593.199 624.472v28.865l-17.42 1.665v-30.53h17.42zM485.795 155.095c0-15.665 11.211-28.41 24.992-28.41s24.992 12.745 24.992 28.41V194h-49.984v-38.905z m-153.914 321.59l-93.022-121.342L331.882 234H790.39v242.685H331.881z m203.898 40v142.141l-49.984 4.777V516.685h49.984zM412.708 670.588a25.618 25.618 0 0 0-16.549 8.288 25.619 25.619 0 0 0-6.673 17.265v0.192l-34.179 4.032v-75.894h90.489v42.954l-33.088 3.163z m123.071 280.177h-49.984V803.963l49.984-4.777v151.579zM429.485 769.163v-59.996l353.776-33.813 29.901 29.295-31.491 30.854-352.186 33.66z" fill="" p-id="4590"></path><path d="M790.39 234H331.882L238.86 355.343l93.022 121.342H790.39V234z m-237.357 30H350.334c-0.632 0-1.242 0.139-1.813 0.414a4.149 4.149 0 0 0-1.454 1.161L298 327.227a9.98 9.98 0 0 1-7.831 3.773 9.957 9.957 0 0 1-6.221-2.176c-4.321-3.439-5.037-9.73-1.597-14.051l49.068-61.653a23.976 23.976 0 0 1 8.417-6.722A23.986 23.986 0 0 1 350.334 244h202.699c5.522 0 10 4.477 10 10s-4.477 10-10 10z m60.166 0H587c-5.522 0-10-4.477-10-10s4.478-10 10-10h26.199c5.522 0 10 4.477 10 10s-4.477 10-10 10z" fill="#FFFFFF" p-id="4591"></path><path d="M347.176 950.765h-0.262c-11.046 0-20 8.954-20 20s8.954 20 20 20h0.262c11.046 0 20-8.954 20-20s-8.954-20-20-20zM285.176 950.765h-71.517c-11.046 0-20 8.954-20 20s8.954 20 20 20h71.517c11.046 0 20-8.954 20-20s-8.954-20-20-20zM553.033 244H350.334c-3.665 0-7.197 0.807-10.498 2.398a23.976 23.976 0 0 0-8.417 6.722l-49.068 61.653c-3.439 4.321-2.724 10.612 1.597 14.051a9.955 9.955 0 0 0 6.221 2.176 9.984 9.984 0 0 0 7.831-3.773l49.068-61.652a4.138 4.138 0 0 1 1.454-1.161 4.139 4.139 0 0 1 1.813-0.414h202.699c5.522 0 10-4.477 10-10s-4.478-10-10.001-10zM613.199 244H587c-5.522 0-10 4.477-10 10s4.478 10 10 10h26.199c5.522 0 10-4.477 10-10s-4.477-10-10-10z" fill="" p-id="4592"></path></svg>