<?xml version="1.0" standalone="no"?><!DOCTYPE svg PUBLIC "-//W3C//DTD SVG 1.1//EN" "http://www.w3.org/Graphics/SVG/1.1/DTD/svg11.dtd"><svg t="1515118687053" class="icon" style="" viewBox="0 0 1024 1024" version="1.1" xmlns="http://www.w3.org/2000/svg" p-id="4559" xmlns:xlink="http://www.w3.org/1999/xlink" width="32" height="32"><defs><style type="text/css"></style></defs><path d="M802.9 808.8L571 695.6l15.9-32.6 140.2 68.4-74-159.9 166.6-57.3-165.4-60.7 77.3-158.3-159.9 74-57.3-166.5L453.7 368l-158.3-77.2 74 159.8L202.9 508l165.3 60.7L291 727l141.6-65.6 15.2 32.9-234.2 108.5 104.3-213.9-223.4-82.1 225.1-77.4-100-216 213.9 104.4 82-223.4 77.5 225 215.9-100-104.3 213.9 223.4 82-225 77.5z" p-id="4560"></path><path d="M561.2 453.4c0-27.4-22.4-49.7-50-49.7s-50 22.2-50 49.7v217.5c0 27.4 22.4 49.7 50 49.7s50-22.2 50-49.7V453.4z m-49.9 304.4c-27.6 0-50 22.2-50 49.7 0 27.4 22.4 49.7 50 49.7s50-22.2 50-49.7c-0.1-27.4-22.4-49.7-50-49.7z" p-id="4561"></path></svg>