<?xml version="1.0" standalone="no"?><!DOCTYPE svg PUBLIC "-//W3C//DTD SVG 1.1//EN" "http://www.w3.org/Graphics/SVG/1.1/DTD/svg11.dtd"><svg t="1513748644456" class="icon" style="" viewBox="0 0 1024 1024" version="1.1" xmlns="http://www.w3.org/2000/svg" p-id="6345" xmlns:xlink="http://www.w3.org/1999/xlink" width="32" height="32"><defs><style type="text/css"></style></defs><path d="M855.585 899.65V154.432a18.597 18.597 0 0 0-6.377-14.018L741.847 46.839a18.593 18.593 0 0 0-18.728-3.4L339.193 186.907a18.596 18.596 0 0 0-12.086 17.42v53.21a18.596 18.596 0 0 1-12.288 17.494l-220.164 79.39a18.596 18.596 0 0 0-12.288 17.486l-0.194 586.847c-0.004 10.273 8.323 18.603 18.595 18.603h16.989c10.27 0 18.597-8.326 18.597-18.596V402.227a18.598 18.598 0 0 1 12.779-17.663l270.61-89.121c12.029-3.961 24.413 4.998 24.413 17.663v642.491c0 10.27 8.325 18.596 18.595 18.596h121.706c10.27 0 18.597-8.326 18.597-18.596V287.371a18.596 18.596 0 0 0-8.939-15.892l-92.744-56.358a18.594 18.594 0 0 0-15.965-1.601l-75.495 27.223c-12.12 4.37-24.904-4.61-24.904-17.493a18.595 18.595 0 0 1 12.657-17.623L671.626 113.3c12.052-4.061 24.534 4.904 24.534 17.623v824.47c0 10.27 8.326 18.595 18.596 18.595h208.481c10.27 0 18.597-8.326 18.597-18.596v-18.548c0-10.27-8.326-18.596-18.597-18.596h-49.056c-10.27 0-18.596-8.326-18.596-18.596z" p-id="6346"></path><path d="M213.474 975.306H369.79c10.27 0 18.596-8.326 18.596-18.596v-64.45c0-10.8-9.17-19.329-19.942-18.548l-156.316 11.34c-9.722 0.704-17.25 8.799-17.25 18.547v53.11c0 10.271 8.326 18.597 18.596 18.597z m1.789-149.937l156.316-15.104c9.533-0.92 16.808-8.932 16.808-18.51v-59.16c0-11.502-10.337-20.245-21.68-18.339l-156.315 26.278a18.596 18.596 0 0 0-15.514 18.339v47.986c0 10.978 9.459 19.566 20.385 18.51z m3.15-301.327l156.316-43.061a18.596 18.596 0 0 0 13.657-17.929v-61.867c0-12.728-12.499-21.694-24.557-17.615l-156.316 52.886a18.596 18.596 0 0 0-12.636 17.616v52.042c0.001 12.282 11.696 21.19 23.535 17.928z m-1.291 151.847l156.316-31.273a18.596 18.596 0 0 0 14.949-18.234v-58.84c0-12.193-11.536-21.086-23.328-17.985L208.743 590.68a18.597 18.597 0 0 0-13.865 17.985v48.991c0 11.735 10.737 20.536 22.244 18.234z" p-id="6347"></path></svg>