<?xml version="1.0" standalone="no"?><!DOCTYPE svg PUBLIC "-//W3C//DTD SVG 1.1//EN" "http://www.w3.org/Graphics/SVG/1.1/DTD/svg11.dtd"><svg t="1522725690957" class="icon" style="" viewBox="0 0 1025 1024" version="1.1" xmlns="http://www.w3.org/2000/svg" p-id="2126" xmlns:xlink="http://www.w3.org/1999/xlink" width="400.390625" height="400"><defs><style type="text/css"></style></defs><path d="M942.704627 81.295335c-94.725574-94.747883-165.803218-80.514507-165.803218-80.514507L445.294973 332.364955 66.30344 711.378797 0 1023.999962l312.643474-66.325749 378.991533-378.991533 331.606437-331.561818C1023.241444 247.143172 1037.47482 176.043218 942.704627 81.295335zM294.015153 920.127548l-106.549539 22.91172c-10.329237-19.252984-22.688627-38.483659-45.354944-61.172285-22.688627-22.666317-41.941611-35.025707-61.149976-45.354944l22.956339-106.527229 30.809236-30.809236c0 0 58.004355 1.137778 123.460039 66.66039 65.500303 65.455684 66.66039 123.482348 66.66039 123.482348L294.015153 920.127548z" p-id="2127"></path></svg>