<?xml version="1.0" standalone="no"?><!DOCTYPE svg PUBLIC "-//W3C//DTD SVG 1.1//EN" "http://www.w3.org/Graphics/SVG/1.1/DTD/svg11.dtd"><svg t="1520836472964" class="icon" style="" viewBox="0 0 1024 1024" version="1.1" xmlns="http://www.w3.org/2000/svg" p-id="1932" xmlns:xlink="http://www.w3.org/1999/xlink" width="200" height="200"><defs><style type="text/css"></style></defs><path d="M820.672 3.52H246.08a128 128 0 0 0-128 128v118.464l-0.064 0.32v4.096h0.832c2.048 14.4 13.888 25.6 28.8 25.6s26.88-11.2 28.928-25.6h0.384v-1.92c0.064-0.704 0.448-1.408 0.448-2.176s-0.384-1.472-0.448-2.24V160a96 96 0 0 1 96-96h520.768a96 96 0 0 1 96 96v702.784a96 96 0 0 1-96 96H272.96a96 96 0 0 1-96-96V763.52c0.064-0.768 0.448-1.472 0.448-2.24a29.568 29.568 0 1 0-59.136-1.28h-0.192v0.96l-0.064 0.32V892.48a128 128 0 0 0 128 128h574.656a128 128 0 0 0 128-128V131.52a128 128 0 0 0-128-128z" fill="" p-id="1933"></path><path d="M85.376 377.6h128a32 32 0 0 0 0-64h-128a32 32 0 0 0 0 64zM245.376 668.288a32 32 0 0 0-32-32h-128a32 32 0 0 0 0 64h128a32 32 0 0 0 32-32zM118.08 457.024v104.704a29.632 29.632 0 1 0 59.264 0V456.96a29.632 29.632 0 1 0-59.264 0zM294.272 743.488s-4.928 35.52 26.112 37.504c13.952 0.896 25.024-10.432 27.136-23.808h0.192c8.64-107.2 91.264-185.344 200.64-185.344 109.44 0 191.744 78.144 200.32 185.344h0.512c2.112 13.376 13.248 24.96 27.2 23.808 35.008-3.008 26.048-37.44 26.048-37.44A256.96 256.96 0 0 0 636.8 532.544a160.32 160.32 0 1 0-176.768 0 256.96 256.96 0 0 0-165.696 210.944z m145.28-347.648a108.8 108.8 0 1 1 217.6 0 108.8 108.8 0 0 1-217.6 0z" fill="" p-id="1934"></path></svg>