<?xml version="1.0" standalone="no"?><!DOCTYPE svg PUBLIC "-//W3C//DTD SVG 1.1//EN" "http://www.w3.org/Graphics/SVG/1.1/DTD/svg11.dtd"><svg t="1513748870964" class="icon" style="" viewBox="0 0 1024 1024" version="1.1" xmlns="http://www.w3.org/2000/svg" p-id="8764" xmlns:xlink="http://www.w3.org/1999/xlink" width="32" height="32"><defs><style type="text/css"></style></defs><path d="M255.7 685.5v-256c0-123.9 88-227.1 204.8-250.9v-30.7c0-28.3 22.9-51.2 51.2-51.2s51.2 22.9 51.2 51.2v30.7c116.8 23.7 204.8 127 204.8 250.9v256h25.7c28.2 0 51.1 22.7 51.1 51.2 0 28.3-22.9 51.2-51.1 51.2H230.1c-28.2 0-51.1-22.7-51.1-51.2 0-28.3 22.9-51.2 51.1-51.2h25.6z m332.8 153.6c0 42.4-34.4 76.8-76.8 76.8s-76.8-34.4-76.8-76.8h153.6z m0 0" p-id="8765"></path></svg>