<?xml version="1.0" standalone="no"?><!DOCTYPE svg PUBLIC "-//W3C//DTD SVG 1.1//EN" "http://www.w3.org/Graphics/SVG/1.1/DTD/svg11.dtd"><svg t="1514974834226" class="icon" style="" viewBox="0 0 1024 1024" version="1.1" xmlns="http://www.w3.org/2000/svg" p-id="6252" xmlns:xlink="http://www.w3.org/1999/xlink" width="32" height="32"><defs><style type="text/css"></style></defs><path d="M112.270505 64.303538l31.978319 0 0 863.413582 767.479649 0 0 31.978319L112.270505 959.695438 112.270505 64.303538z" p-id="6253"></path><path d="M400.075373 448.043363l0 415.71712-191.869912 0 0-223.848231L400.075373 448.043363z" p-id="6254"></path><path d="M655.901922 480.021681l0 383.738801-191.869912 0L464.03201 448.043363l95.934956 127.912251L655.901922 480.021681z" p-id="6255"></path><path d="M911.728472 288.151769l0 575.608713-191.869912 0L719.85856 448.043363 911.728472 288.151769z" p-id="6256"></path><path d="M240.183779 512l-31.978319-31.978319 223.848231-223.848231 127.913275 127.913275 255.82655-223.848231-63.956637-63.956637 159.891593 0 0 159.891593-63.956637-63.956637-287.804868 255.82655-127.913275-127.913275L240.183779 512z" p-id="6257"></path></svg>