<?xml version="1.0" standalone="no"?><!DOCTYPE svg PUBLIC "-//W3C//DTD SVG 1.1//EN" "http://www.w3.org/Graphics/SVG/1.1/DTD/svg11.dtd"><svg t="1522724718312" class="icon" style="" viewBox="0 0 1024 1024" version="1.1" xmlns="http://www.w3.org/2000/svg" p-id="1828" xmlns:xlink="http://www.w3.org/1999/xlink" width="400" height="400"><defs><style type="text/css"></style></defs><path d="M657.135518 609.659227" p-id="1829"></path><path d="M802.985304 659.992589c-96.739275-77.791737-123.81084-39.549761-167.719886 4.355191-30.708396 30.582529-108.243283-33.415041-175.243233-100.376105-67.00302-66.960041-131.044592-144.535861-100.336196-175.202301 43.86402-43.905976 82.102926-70.936609 4.358261-167.718863-77.746712-96.780207-129.605823-22.459524-172.160012 20.093641-49.0266 49.068556-2.579755 231.971236 178.207751 412.797627 180.788529 180.746574 363.732142 227.273237 412.797627 178.167842C825.442782 789.595342 899.719462 737.780233 802.985304 659.992589z" p-id="1830"></path><path d="M809.467949 173.5865 645.62844 173.5865c-22.621207 0-40.959877 18.337647-40.959877 40.959877l0 143.360082 0 20.48045 0 102.400205 61.440327-61.440327 143.360082 0c22.621207 0 40.959877-18.33867 40.959877-40.959877L850.428849 214.546378C850.427826 191.924147 832.089156 173.5865 809.467949 173.5865z" p-id="1831"></path></svg>