<?xml version="1.0" standalone="no"?><!DOCTYPE svg PUBLIC "-//W3C//DTD SVG 1.1//EN" "http://www.w3.org/Graphics/SVG/1.1/DTD/svg11.dtd"><svg t="1527213492635" class="icon" style="" viewBox="0 0 1024 1024" version="1.1" xmlns="http://www.w3.org/2000/svg" p-id="1058" xmlns:xlink="http://www.w3.org/1999/xlink" width="32" height="32"><defs><style type="text/css"></style></defs><path d="M372.48 613.12V404.48h-113.92v65.28h43.52v153.6c1.28 6.4 0 12.8-3.84 17.92-3.84 5.12-10.24 7.68-16.64 7.68h-19.2v58.88h65.28c17.92 1.28 33.28-10.24 38.4-28.16 17.92 16.64 42.24 26.88 66.56 28.16h304.64v-58.88H440.32c-26.88-3.84-49.92-16.64-67.84-35.84m2.56-382.72h-81.92v80.64h81.92V230.4M742.4 311.04v-61.44H597.76v-25.6h-75.52v25.6h-115.2v61.44h115.2v42.24h-117.76v64h115.2v47.36h-117.76v61.44h117.76v103.68h72.96V524.8h78.08v32c1.28 10.24-2.56 14.08-10.24 12.8h-35.84v51.2h81.92c21.76 1.28 33.28-11.52 32-38.4v-119.04H592.64v-47.36h144.64v-64H595.2v-42.24H742.4m98.56 433.92c62.72-79.36 96-176.64 96-277.76-2.56-241.92-200.96-435.2-441.6-432.64-241.92 2.56-436.48 198.4-435.2 440.32 1.28 240.64 197.12 436.48 439.04 436.48 84.48 0 167.68-24.32 239.36-71.68C893.44 1011.2 881.92 994.56 881.92 994.56l99.84-93.44-140.8-157.44zM499.2 826.88c-147.2 2.56-280.32-84.48-337.92-220.16-57.6-134.4-28.16-290.56 75.52-395.52 102.4-103.68 258.56-135.68 394.24-80.64C766.72 186.88 855.04 320 855.04 465.92c1.28 198.4-158.72 359.68-355.84 360.96z m0 0" p-id="1059"></path></svg>