<?xml version="1.0" standalone="no"?><!DOCTYPE svg PUBLIC "-//W3C//DTD SVG 1.1//EN" "http://www.w3.org/Graphics/SVG/1.1/DTD/svg11.dtd"><svg t="1526468472191" class="icon" style="" viewBox="0 0 1024 1024" version="1.1" xmlns="http://www.w3.org/2000/svg" p-id="2812" xmlns:xlink="http://www.w3.org/1999/xlink" width="200" height="200"><defs><style type="text/css"></style></defs><path d="M222 262.5c11.1 11.1 29.3 11.2 40.5 0 11.3-11.3 11.2-29.3 0-40.5l-27-27c-11.1-11.1-29.3-11.2-40.5 0-11.3 11.3-11.2 29.3 0 40.5l27 27zM130.5 483.4H92.3c-15.8 0-28.6 12.8-28.6 28.6 0 15.9 12.8 28.6 28.6 28.6h38.1c15.8 0 28.6-12.8 28.6-28.6 0.1-15.9-12.7-28.6-28.5-28.6zM512 159.1c15.9 0 28.6-12.8 28.6-28.6v-38.1c0-15.8-12.8-28.6-28.6-28.6-15.9 0-28.6 12.8-28.6 28.6V130.5c0 15.7 12.8 28.6 28.6 28.6zM802 262.5l27-27c11.1-11.1 11.2-29.3 0-40.5-11.3-11.3-29.3-11.2-40.5 0l-27 27c-11.1 11.1-11.2 29.3 0 40.5 11.3 11.2 29.4 11.1 40.5 0zM222 761.6l-27 27c-11.1 11.1-11.2 29.3 0 40.5 11.3 11.3 29.3 11.2 40.5 0l27-27c11.1-11.1 11.2-29.3 0-40.5-11.3-11.3-29.4-11.2-40.5 0zM802 761.6c-11.1-11.1-29.3-11.2-40.5 0-11.3 11.3-11.2 29.3 0 40.5l27 27c11.1 11.1 29.3 11.2 40.5 0 11.3-11.3 11.2-29.3 0-40.5l-27-27zM931.7 483.4h-38.1c-15.8 0-28.6 12.8-28.6 28.6 0 15.9 12.8 28.6 28.6 28.6h38.1c15.8 0 28.6-12.8 28.6-28.6 0-15.9-12.8-28.6-28.6-28.6zM512 231.8c-154.7 0-280.2 125.4-280.2 280.2S357.3 792.2 512 792.2 792.2 666.8 792.2 512 666.7 231.8 512 231.8z m0 494.5c-118.3 0-214.2-95.9-214.2-214.2S393.7 297.8 512 297.8 726.2 393.7 726.2 512 630.3 726.3 512 726.3zM512 865c-15.9 0-28.6 12.8-28.6 28.6v38.1c0 15.8 12.8 28.6 28.6 28.6 15.9 0 28.6-12.8 28.6-28.6v-38.1c0-15.8-12.8-28.6-28.6-28.6z" p-id="2813"></path><path d="M638.6 480.1h-95.3v-96.3c0-17.7-14.3-32-32-32s-32 14.3-32 32v96.3h-95.2c-17.7 0-32 14.3-32 32s14.3 32 32 32h95.2V640c0 17.7 14.3 32 32 32s32-14.3 32-32v-95.9h95.3c17.7 0 32-14.3 32-32s-14.3-32-32-32z" p-id="2814"></path></svg>