<?xml version="1.0" standalone="no"?><!DOCTYPE svg PUBLIC "-//W3C//DTD SVG 1.1//EN" "http://www.w3.org/Graphics/SVG/1.1/DTD/svg11.dtd"><svg t="1526268690861" class="icon" style="" viewBox="0 0 1024 1024" version="1.1" xmlns="http://www.w3.org/2000/svg" p-id="594" xmlns:xlink="http://www.w3.org/1999/xlink" width="48" height="48"><defs><style type="text/css"></style></defs><path d="M678.2408888888888 441.5024a274.96320000000003 274.96320000000003 0 0 0-276.4896-275.7216 274.96320000000003 274.96320000000003 0 0 0-276.4896 275.7216c0 119.99040000000001 76.8672 222.1056 184.33439999999996 260.3904-58.8432 20.3952-180.46560000000002 58.761599999999994-180.46560000000002 102.1584h547.9248c-50.016-14.472-98.2704-149.6928-150.1584-119.8224 96.3408-55.4448 151.44-155.2464 151.34400000000002-242.7264z m-271.3392 194.0352c-79.41120000000001 0-145.9728-66.4224-145.9728-145.5408s66.5616-145.4976 145.9728-145.4976a145.6464 145.6464 0 0 1 145.968 145.4976 145.6992 145.6992 0 0 1-145.968 145.5408z m0 0" p-id="595"></path><path d="M401.7512888888889 426.2144c-38.4144 0-71.62559999999999 33.2112-71.62559999999999 71.4576 0 40.8288 33.2112 71.44800000000001 71.62559999999999 71.44800000000001 39.4608 0 71.44800000000001-31.9824 71.44800000000001-71.44800000000001s-31.987199999999998-71.4576-71.44800000000001-71.4576z m0 0" p-id="596"></path><path d="M708.1784888888888 492.6848c-101.28 0-182.49599999999998 81.20159999999998-182.49599999999998 182.4864s81.216 182.4864 182.49599999999998 182.4864 182.4864-81.20159999999998 182.4864-182.4864-81.2112-182.4864-182.4864-182.4864z m91.2432 248.18399999999997l-25.5456 25.5456-65.7024-65.6976-65.7024 65.6976-25.5456-25.5456 65.6928-65.6976-65.6928-65.6976 25.5456-25.5456 65.7024 65.6976 65.7024-65.6976 25.5456 25.5456-65.7024 65.6976 65.7024 65.6976z m0 0" p-id="597"></path></svg>