<?xml version="1.0" standalone="no"?><!DOCTYPE svg PUBLIC "-//W3C//DTD SVG 1.1//EN" "http://www.w3.org/Graphics/SVG/1.1/DTD/svg11.dtd"><svg t="1525752117155" class="icon" style="" viewBox="0 0 1024 1024" version="1.1" xmlns="http://www.w3.org/2000/svg" p-id="15309" xmlns:xlink="http://www.w3.org/1999/xlink" width="32" height="32"><defs><style type="text/css"></style></defs><path d="M959.381795 213.313294c0-82.421174-66.815755-149.236929-149.236929-149.236929L213.225801 64.076364c-82.421174 0-149.236929 66.815755-149.236929 149.236929l0 596.919065c0 82.421174 66.815755 149.236929 149.236929 149.236929L810.144866 959.469288c82.421174 0 149.236929-66.815755 149.236929-149.236929L959.381795 213.313294zM884.680443 784.03879c0 56.196906-45.556569 101.753475-101.752452 101.753475L239.41937 885.792265c-56.195883 0-101.752452-45.556569-101.752452-101.753475L137.666918 240.531192c0-56.196906 45.556569-101.753475 101.752452-101.753475l543.509644 0c56.195883 0 101.752452 45.556569 101.752452 101.753475L884.681466 784.03879z" p-id="15310"></path><path d="M511.999488 601.75828c69.397556 0 125.665071-56.266491 125.665071-125.665071 0-69.406766-56.266491-125.665071-125.665071-125.665071-69.406766 0-125.665071 56.258305-125.665071 125.665071C386.334417 545.491789 442.592722 601.75828 511.999488 601.75828zM511.999488 395.308301c44.618197 0 80.783885 36.167734 80.783885 80.784908s-36.166711 80.783885-80.783885 80.783885c-44.617174 0-80.784908-36.166711-80.784908-80.783885S467.382315 395.308301 511.999488 395.308301zM358.256942 762.973008c1.89107-0.039909 3.818979-0.089028 5.829775-0.157589C361.782232 762.869654 359.849206 762.922866 358.256942 762.973008zM802.310434 744.775554c-8.451486-12.045337-38.288025-53.757345-75.727729-106.001219 34.31862-45.195342 54.698786-101.55393 54.698786-162.681126 0-148.719136-120.562866-269.282003-269.282003-269.282003-148.719136 0-269.282003 120.56389-269.282003 269.282003 0 61.838394 20.85805 118.794593 55.904241 164.252925-36.919864 51.506071-66.243727 92.50381-74.610278 104.429421-27.559683 39.270399-27.997658 73.825402 47.606251 72.019267-98.500385 2.331092 408.166143-2.577708 477.616912 0C822.840002 819.529095 829.895699 784.045953 802.310434 744.775554zM296.573067 476.093209c0-118.976742 96.448656-215.426421 215.426421-215.426421 118.976742 0 215.426421 96.448656 215.426421 215.426421 0 118.976742-96.449679 215.421304-215.426421 215.421304C393.022747 691.514513 296.573067 595.069951 296.573067 476.093209zM657.509537 762.815419c-51.511187 0.662079-349.683171 1.737574-299.252595 0.157589-84.582397 1.762133-51.193962-26.154683-30.573319-55.837726 2.818185-4.065596 8.125051-11.559267 15.2094-21.497617 46.225811 37.3517 105.048521 59.733453 169.106466 59.733453 67.045999 0 128.362506-24.509207 175.497013-65.047482 9.344832 12.582573 16.278755 22.051225 19.584034 26.811646C728.169853 737.482451 771.244904 761.341858 657.509537 762.815419zM511.999488 440.189488l0-26.928303c-34.703383 0-62.832024 28.128641-62.832024 62.832024l26.928303 0C476.094744 456.265628 492.170884 440.189488 511.999488 440.189488z" p-id="15311"></path></svg>