<?xml version="1.0" standalone="no"?><!DOCTYPE svg PUBLIC "-//W3C//DTD SVG 1.1//EN" "http://www.w3.org/Graphics/SVG/1.1/DTD/svg11.dtd"><svg t="1526468447734" class="icon" style="" viewBox="0 0 1024 1024" version="1.1" xmlns="http://www.w3.org/2000/svg" p-id="2588" xmlns:xlink="http://www.w3.org/1999/xlink" width="200" height="200"><defs><style type="text/css"></style></defs><path d="M960 1024H64c-35.288 0-64-28.712-64-64V64c0-35.288 28.712-64 64-64h896c35.288 0 64 28.712 64 64v896c0 35.288-28.712 64-64 64zM64 32C46.352 32 32 46.352 32 64v896c0 17.648 14.352 32 32 32h896c17.648 0 32-14.352 32-32V64c0-17.648-14.352-32-32-32H64z" p-id="2589"></path><path d="M864 182.272A17.728 17.728 0 0 1 846.272 200H649.728A17.728 17.728 0 0 1 632 182.272v-4.544c0-9.792 7.936-17.728 17.728-17.728h196.544c9.792 0 17.728 7.936 17.728 17.728v4.544z" p-id="2590"></path><path d="M864 374.272A17.728 17.728 0 0 1 846.272 392h-4.544A17.728 17.728 0 0 1 824 374.272V177.728c0-9.792 7.936-17.728 17.728-17.728h4.544c9.792 0 17.728 7.936 17.728 17.728v196.544zM392 177.728A17.728 17.728 0 0 0 374.272 160H177.728A17.728 17.728 0 0 0 160 177.728v4.544c0 9.792 7.936 17.728 17.728 17.728h196.544A17.728 17.728 0 0 0 392 182.272v-4.544z" p-id="2591"></path><path d="M200 177.728A17.728 17.728 0 0 0 182.272 160h-4.544A17.728 17.728 0 0 0 160 177.728v196.544c0 9.792 7.936 17.728 17.728 17.728h4.544A17.728 17.728 0 0 0 200 374.272V177.728zM392 844.096c0 9.784-5.272 19.904-15.056 19.904H177.728c-9.792 0-17.728-10.128-17.728-19.904v-1.216c0-9.8 7.936-18.864 17.728-18.864h199.216c9.792 0 15.056 9.08 15.056 18.864v1.216z" p-id="2592"></path><path d="M200 844.096c0 9.784-11.272 19.904-21.056 19.904h-1.216c-9.792 0-17.728-10.128-17.728-19.904V644.872c0-9.792 7.936-12.872 17.728-12.872h1.216c9.784 0 21.056 3.08 21.056 12.872v199.224z" p-id="2593"></path><path d="M632 844.096c0 9.784 5.264 19.904 15.064 19.904h199.216c9.784 0 17.72-10.128 17.72-19.904v-1.216c0-9.8-7.936-18.864-17.72-18.864H647.064c-9.8 0-15.064 9.08-15.064 18.864v1.216z" p-id="2594"></path><path d="M824 844.096c0 9.784 11.264 19.904 21.064 19.904h1.216c9.784 0 17.72-10.128 17.72-19.904V644.872c0-9.808-7.936-12.872-17.72-12.872h-1.216c-9.8 0-21.064 3.08-21.064 12.872v199.224z" p-id="2595"></path><path d="M776 510.28A17.728 17.728 0 0 1 758.272 528H265.728A17.728 17.728 0 0 1 248 510.28v-4.552c0-9.792 7.936-17.728 17.728-17.728h492.544c9.792 0 17.728 7.936 17.728 17.72v4.56z" p-id="2596"></path></svg>