<?xml version="1.0" standalone="no"?><!DOCTYPE svg PUBLIC "-//W3C//DTD SVG 1.1//EN" "http://www.w3.org/Graphics/SVG/1.1/DTD/svg11.dtd"><svg t="1526470229665" class="icon" style="" viewBox="0 0 1024 1024" version="1.1" xmlns="http://www.w3.org/2000/svg" p-id="2921" xmlns:xlink="http://www.w3.org/1999/xlink" width="200" height="200"><defs><style type="text/css"></style></defs><path d="M512 726.3c-118.3 0-214.2-95.9-214.2-214.2S393.7 297.8 512 297.8 726.2 393.7 726.2 512 630.3 726.3 512 726.3z m0 65.9c154.7 0 280.2-125.4 280.2-280.2S666.7 231.8 512 231.8 231.8 357.3 231.8 512 357.3 792.2 512 792.2z m0 72.8c15.8 0 28.6 12.9 28.6 28.6v38.1c0 15.8-12.7 28.6-28.6 28.6-15.8 0-28.6-12.9-28.6-28.6v-38.1c0-15.8 12.7-28.6 28.6-28.6z m0-801.3c15.8 0 28.6 12.9 28.6 28.6V130.5c0 15.8-12.7 28.6-28.6 28.6-15.8 0-28.6-12.9-28.6-28.6v-38.1c0-15.9 12.7-28.7 28.6-28.7z m249.6 697.9c11.2-11.2 29.3-11.1 40.5 0l27 27c11.2 11.2 11.3 29.2 0 40.5-11.2 11.2-29.3 11.1-40.5 0l-27-27c-11.2-11.2-11.3-29.3 0-40.5zM195 195c11.2-11.2 29.3-11.1 40.5 0l27 27c11.2 11.2 11.3 29.2 0 40.5-11.2 11.2-29.3 11.1-40.5 0l-27-27c-11.2-11.2-11.3-29.2 0-40.5z m566.6 67.5c-11.2-11.2-11.1-29.3 0-40.5l27-27c11.2-11.2 29.2-11.3 40.5 0 11.2 11.2 11.1 29.3 0 40.5l-27 27c-11.2 11.1-29.3 11.2-40.5 0zM195 829c-11.2-11.2-11.1-29.3 0-40.5l27-27c11.2-11.2 29.2-11.3 40.5 0 11.2 11.2 11.1 29.3 0 40.5l-27 27c-11.2 11.2-29.3 11.3-40.5 0z m669.9-317c0-15.8 12.9-28.6 28.6-28.6h38.1c15.8 0 28.6 12.7 28.6 28.6 0 15.8-12.9 28.6-28.6 28.6h-38.1c-15.8 0-28.6-12.7-28.6-28.6z m-801.2 0c0-15.8 12.9-28.6 28.6-28.6h38.1c15.8 0 28.6 12.7 28.6 28.6 0 15.8-12.9 28.6-28.6 28.6H92.3c-15.8 0-28.6-12.7-28.6-28.6z" p-id="2922"></path><path d="M638.6 544.1H384.1c-17.7 0-32-14.3-32-32s14.3-32 32-32h254.5c17.7 0 32 14.3 32 32s-14.3 32-32 32z" p-id="2923"></path></svg>