<?xml version="1.0" standalone="no"?><!DOCTYPE svg PUBLIC "-//W3C//DTD SVG 1.1//EN" "http://www.w3.org/Graphics/SVG/1.1/DTD/svg11.dtd"><svg t="1526468435696" class="icon" style="" viewBox="0 0 1024 1024" version="1.1" xmlns="http://www.w3.org/2000/svg" p-id="2472" xmlns:xlink="http://www.w3.org/1999/xlink" width="200" height="200"><defs><style type="text/css"></style></defs><path d="M960 1024H64c-35.288 0-64-28.712-64-64V64c0-35.288 28.712-64 64-64h896c35.288 0 64 28.712 64 64v896c0 35.288-28.712 64-64 64zM64 32C46.352 32 32 46.352 32 64v896c0 17.648 14.352 32 32 32h896c17.648 0 32-14.352 32-32V64c0-17.648-14.352-32-32-32H64z" p-id="2473"></path><path d="M864 182.288A17.712 17.712 0 0 1 846.28 200h-196.56A17.712 17.712 0 0 1 632 182.288v-4.568c0-9.792 7.928-17.72 17.72-17.72h196.56c9.792 0 17.72 7.928 17.72 17.712v4.576z" p-id="2474"></path><path d="M864 374.28A17.712 17.712 0 0 1 846.28 392h-4.56A17.72 17.72 0 0 1 824 374.28v-196.56c0-9.792 7.928-17.72 17.72-17.72h4.56c9.792 0 17.72 7.936 17.72 17.72v196.56zM392 177.728A17.728 17.728 0 0 0 374.28 160h-196.56A17.728 17.728 0 0 0 160 177.728v4.544c0 9.792 7.936 17.728 17.72 17.728h196.552A17.728 17.728 0 0 0 392 182.272v-4.544z" p-id="2475"></path><path d="M200 177.728A17.72 17.72 0 0 0 182.288 160h-4.568A17.72 17.72 0 0 0 160 177.728v196.544c0 9.792 7.928 17.728 17.712 17.728h4.568A17.72 17.72 0 0 0 200 374.272V177.728zM392 844.096c0 9.784-5.264 19.904-15.056 19.904H177.728c-9.792 0-17.728-10.144-17.728-19.904v-1.216c0-9.8 7.936-18.864 17.728-18.864h199.216c9.792 0 15.056 9.08 15.056 18.864v1.216z" p-id="2476"></path><path d="M200 844.096c0 9.784-11.264 19.904-21.056 19.904h-1.216c-9.792 0-17.728-10.144-17.728-19.904V644.856c0-9.776 7.936-12.856 17.728-12.856h1.216c9.792 0 21.056 3.08 21.056 12.856v199.24z" p-id="2477"></path><path d="M632 844.096c0 9.784 5.272 19.904 15.064 19.904h199.224c9.776 0 17.712-10.144 17.712-19.904v-1.216c0-9.8-7.936-18.864-17.712-18.864H647.064c-9.792 0-15.064 9.08-15.064 18.864v1.216z" p-id="2478"></path><path d="M824 844.096c0 9.784 11.272 19.904 21.064 19.904h1.224c9.776 0 17.712-10.144 17.712-19.904V644.856c0-9.792-7.936-12.856-17.712-12.856h-1.224c-9.792 0-21.064 3.08-21.064 12.856v199.24z" p-id="2479"></path><path d="M776 510.28A17.712 17.712 0 0 1 758.28 528h-492.56A17.72 17.72 0 0 1 248 510.28v-4.56c0-9.784 7.936-17.72 17.72-17.72h492.56c9.792 0 17.72 7.936 17.72 17.72v4.56z" p-id="2480"></path><path d="M528 766.264A17.72 17.72 0 0 1 510.28 784h-4.56A17.728 17.728 0 0 1 488 766.264V273.736c0-9.792 7.936-17.736 17.72-17.736h4.56c9.792 0 17.72 7.944 17.72 17.736v492.528z" p-id="2481"></path></svg>