<?xml version="1.0" standalone="no"?><!DOCTYPE svg PUBLIC "-//W3C//DTD SVG 1.1//EN" "http://www.w3.org/Graphics/SVG/1.1/DTD/svg11.dtd"><svg t="1515118620798" class="icon" style="" viewBox="0 0 1024 1024" version="1.1" xmlns="http://www.w3.org/2000/svg" p-id="4310" xmlns:xlink="http://www.w3.org/1999/xlink" width="32" height="32"><defs><style type="text/css"></style></defs><path d="M878.474 206.1c-151.973 0-268.407-43.332-366.854-138.869C413.174 162.77 296.75 206.1 144.788 206.1c0 248.791-51.621 605.2 366.823 749.927C930.054 811.3 878.474 454.89 878.474 206.1zM748.599 389.66l-243.48 292.847a47.37 47.37 0 0 1-13.79 16.668c-21.362 16.042-52.028 12.131-68.496-8.706l-147.991-187.63c-16.07-20.313-12.629-49.805 7.684-65.874 0.411-0.325 0.827-0.644 1.25-0.956 21.303-16.072 51.997-12.1 68.447 8.746l110.26 139.783 211.256-254.132c16.012-19.258 45.754-21.621 66.411-5.241s24.46 45.207 8.449 64.496z" p-id="4311"></path></svg>