<?xml version="1.0" standalone="no"?><!DOCTYPE svg PUBLIC "-//W3C//DTD SVG 1.1//EN" "http://www.w3.org/Graphics/SVG/1.1/DTD/svg11.dtd"><svg t="1516588391869" class="icon" style="" viewBox="0 0 1024 1024" version="1.1" xmlns="http://www.w3.org/2000/svg" p-id="1599" xmlns:xlink="http://www.w3.org/1999/xlink" width="200" height="200"><defs><style type="text/css"></style></defs><path d="M512 0C230.4 0 0 230.4 0 512s230.4 512 512 512 512-230.4 512-512S793.6 0 512 0zM512 800c-38.4 0-64-25.6-64-64 0-38.4 25.6-64 64-64 38.4 0 64 25.6 64 64C576 774.4 550.4 800 512 800zM512 608c-51.2 0-64-281.6-64-320 0-38.4 25.6-64 64-64 38.4 0 64 25.6 64 64C576 320 563.2 608 512 608z" p-id="1600"></path></svg>