<?xml version="1.0" standalone="no"?><!DOCTYPE svg PUBLIC "-//W3C//DTD SVG 1.1//EN" "http://www.w3.org/Graphics/SVG/1.1/DTD/svg11.dtd"><svg t="1515124357021" class="icon" style="" viewBox="0 0 1024 1024" version="1.1" xmlns="http://www.w3.org/2000/svg" p-id="6023" xmlns:xlink="http://www.w3.org/1999/xlink" width="32" height="32"><defs><style type="text/css"></style></defs><path d="M512 66.1C265.7 66.1 66.1 265.7 66.1 512S265.7 957.9 512 957.9c246.3 0 445.9-199.6 445.9-445.9S758.3 66.1 512 66.1z m247.4 693.3c-32.2 32.2-69.6 57.4-111.3 75-43.1 18.2-88.9 27.5-136.2 27.5-47.3 0-93.1-9.2-136.2-27.5-41.7-17.6-79.1-42.9-111.3-75-32.2-32.2-57.4-69.6-75-111.3-18.2-43.1-27.5-88.9-27.5-136.2 0-47.3 9.2-93.1 27.5-136.2 17.6-41.7 42.9-79.1 75-111.3 32.2-32.2 69.6-57.4 111.3-75 43.1-18.2 88.9-27.5 136.2-27.5 47.3 0 93.1 9.2 136.2 27.5 41.7 17.6 79.1 42.9 111.3 75 32.2 32.2 57.4 69.6 75 111.3 18.2 43.1 27.5 88.9 27.5 136.2 0 47.3-9.2 93.1-27.5 136.2-17.6 41.7-42.8 79.2-75 111.3z" p-id="6024"></path><path d="M446.4 665H540v95.9h-93.6zM502.6 255.5c-96.7 0-152.9 52.3-168.5 156.8h86.6c10.9-62.4 39-94.4 84.2-95.9 42.1 3.1 63.9 27.3 65.5 72.5 1.5 29.7-18.7 60.8-60.8 93.6-43.7 31.2-64 68.7-60.8 112.3v25.7h86.6v-18.7c-1.6-32.8 14-61.6 46.8-86.6 56.2-39 82.7-82.7 79.6-131-4.8-82.7-57.9-125.6-159.2-128.7z" p-id="6025"></path></svg>