<?xml version="1.0" standalone="no"?><!DOCTYPE svg PUBLIC "-//W3C//DTD SVG 1.1//EN" "http://www.w3.org/Graphics/SVG/1.1/DTD/svg11.dtd"><svg t="1517566212184" class="icon" style="" viewBox="0 0 1024 1024" version="1.1" xmlns="http://www.w3.org/2000/svg" p-id="1088" xmlns:xlink="http://www.w3.org/1999/xlink" width="32" height="32"><defs><style type="text/css"></style></defs><path d="M416.775218 82.948177l190.719716 0c27.316136 0 52.243875 11.472286 70.297043 29.300326 18.571984 18.075681 29.818119 43.972491 29.818119 70.815859l0 31.260981 75.188446 0c48.367591 0 92.790336 19.788695 124.795261 52.266387 31.982412 31.507598 52.018747 76.18003 52.018747 124.525108l0 372.649232c0 48.840358-20.036335 92.790336-52.018747 125.268028-32.004925 31.733749-76.42767 52.018747-124.795261 52.018747L241.179968 941.052846c-48.593741 0-92.791359-20.284999-125.021411-52.018747l-1.465374-2.185782c-31.238468-32.004925-50.305733-75.210959-50.305733-123.082246L64.387449 391.114792c0-48.345078 20.036335-92.542696 51.771107-124.525108l0.24764 0-0.24764 0c32.230052-32.477692 76.42767-52.266387 125.021411-52.266387l75.457576 0 0-31.260981c0-26.843368 11.247158-52.740178 29.322839-70.815859C364.013551 94.41944 389.165394 82.948177 416.775218 82.948177L416.775218 82.948177zM690.503487 282.683221 690.503487 282.683221c-0.969071 1.014096-2.456958 1.014096-3.898797 1.014096l-0.496304 0L337.39531 283.697317c-1.465374 0-2.929726 0-4.14746-1.014096l-92.067882 0c-29.525454 0-56.167231 12.710486-76.18003 32.004925-19.542078 19.788695-31.734772 46.902216-31.734772 76.42767l0 165.81449 98.154507 0 0-60.786435c0-11.742439 9.28548-21.25407 20.757766-21.25407l0.473791 0 147.018402 0c11.472286 0 20.757766 9.511631 20.757766 21.25407l0 0.225127 0 60.560284 183.124737 0 0-60.786435c0-11.742439 9.307993-21.25407 20.532639-21.25407l0.474814 0 147.512658 0c11.223622 0 20.262486 9.511631 20.262486 21.25407l0 0.225127 0 60.560284 98.403171 0L890.737904 391.114792c0-29.525454-12.19474-56.638975-31.757285-76.42767-19.766183-19.293415-46.879704-32.004925-76.18003-32.004925L690.503487 282.682197 690.503487 282.683221zM357.904413 214.32432 357.904413 214.32432l308.167638 0 0-31.260981c0-15.618723-6.829546-30.742165-17.084097-41.515532-10.998495-10.233062-25.400506-17.084097-41.49302-17.084097L416.775218 124.46371c-15.889899 0-31.012318 6.851035-41.763173 17.084097-10.503215 10.773368-17.10661 25.89681-17.10661 41.515532L357.905436 214.32432 357.904413 214.32432zM133.265166 598.198198 133.265166 598.198198l0 165.56685c0 28.804023 11.719926 55.669904 30.269397 74.962296l1.466398 1.713015c20.012799 19.292392 46.654576 31.508621 76.18003 31.508621l541.618575 0c29.300326 0 56.413847-12.216229 76.18003-31.508621 19.563568-19.788695 31.757285-46.902216 31.757285-76.67531L890.73688 598.198198l-98.403171 0 0 61.551868c0 11.224646-9.03784 20.239973-20.262486 20.239973l-0.969071 0L624.083751 679.990039c-11.224646 0-20.532639-9.015328-20.532639-20.239973l0-0.991584 0-60.560284L420.426375 598.198198l0 61.551868c0 11.224646-9.28548 20.239973-20.757766 20.239973l-0.473791 0L252.17744 679.990039c-11.472286 0-20.757766-9.015328-20.757766-20.239973l0-0.991584 0-60.560284L133.265166 598.198198 133.265166 598.198198zM378.910842 516.383844 378.910842 516.383844 272.935206 516.383844l0 60.808948 0 0.473791 0 0.518816 0 60.312644 105.975637 0 0-60.312644 0-0.518816 0-0.473791L378.910842 516.383844 378.910842 516.383844zM751.064794 516.383844 751.064794 516.383844 644.842541 516.383844l0 60.808948 0 0.473791 0 0.518816 0 60.312644 106.222253 0 0-60.312644 0-0.518816 0-0.473791L751.064794 516.383844 751.064794 516.383844z" p-id="1089"></path></svg>