<?xml version="1.0" standalone="no"?><!DOCTYPE svg PUBLIC "-//W3C//DTD SVG 1.1//EN" "http://www.w3.org/Graphics/SVG/1.1/DTD/svg11.dtd"><svg t="1515390435914" class="icon" style="" viewBox="0 0 1536 1024" version="1.1" xmlns="http://www.w3.org/2000/svg" p-id="4350" xmlns:xlink="http://www.w3.org/1999/xlink" width="48" height="32"><defs><style type="text/css"></style></defs><path d="M767.425618 763.409874a252.618542 252.618542 0 1 1 270.297457-252.034115 261.89632 261.89632 0 0 1-270.297457 252.034115z m0-401.793517a150.124669 150.124669 0 1 0 160.717407 149.759402 155.457564 155.457564 0 0 0-160.717407-149.759402z m0-259.339452a715.484674 715.484674 0 0 1 472.290016 177.081361 730.971988 730.971988 0 0 1 111.333331 122.364389 719.94093 719.94093 0 0 1 64.87139 109.580051A717.895435 717.895435 0 0 1 295.135602 743.320198 733.821069 733.821069 0 0 1 183.802271 620.955809 714.023607 714.023607 0 0 1 118.930881 511.375759a717.237955 717.237955 0 0 1 648.494737-409.098854z m0-102.274713a828.790446 828.790446 0 0 0-547.096664 204.549427A818.636028 818.636028 0 0 0 0 511.375759a818.636028 818.636028 0 0 0 219.963687 306.82414A830.251513 830.251513 0 0 0 1534.120702 511.375759a819.439615 819.439615 0 0 0-219.963687-306.82414A828.790446 828.790446 0 0 0 767.060351 0.002192M662.155716 341.599735A102.274713 102.274713 0 1 1 557.324135 443.436128a103.370514 103.370514 0 0 1 104.831581-101.836393z" p-id="4351"></path></svg>