<?xml version="1.0" standalone="no"?><!DOCTYPE svg PUBLIC "-//W3C//DTD SVG 1.1//EN" "http://www.w3.org/Graphics/SVG/1.1/DTD/svg11.dtd"><svg t="1526433023623" class="icon" style="" viewBox="0 0 1024 1024" version="1.1" xmlns="http://www.w3.org/2000/svg" p-id="1518" xmlns:xlink="http://www.w3.org/1999/xlink" width="48" height="48"><defs><style type="text/css"></style></defs><path d="M880.076076 252.391311H749.647515l-68.067258-113.426329H341.308433l-68.049862 113.426329H142.813636c-28.361955 0-85.074607 28.356838-85.074607 84.179214v454.582289c0 46.969755 42.540885 85.069491 79.166037 85.069491h744.94747c37.214577 0 83.294055-39.875173 83.294055-84.179214V337.460802c-0.001023-28.361955-28.357861-85.069491-85.070515-85.069491z m28.356838 539.65178c0 11.189853-18.137079 26.831089-26.581401 27.471678H137.062656c-6.561439-0.527003-22.610974-13.3214-22.610974-28.361955V336.570525c0-17.972327 24.136723-27.02347 28.361954-27.471678h162.550143l16.515139-27.545356 51.534724-85.874833h277.927916l50.621935 85.897345 15.59007 27.522844h162.522513c19.99131 0 28.078499 26.116821 28.356838 28.361955v454.582289zM511.442298 337.460802c-109.62577 0-198.48968 88.85777-198.48968 198.495819 0 109.62577 88.86391 198.48968 198.48968 198.48968 109.637026 0 198.49582-88.86391 198.49582-198.48968-0.001023-109.638049-88.858794-198.49582-198.49582-198.495819z m0 340.271823c-78.17343 0-141.777027-63.609737-141.777027-141.777027 0-78.178547 63.603597-141.782144 141.777027-141.782144 78.178547 0 141.782144 63.603597 141.782144 141.782144 0 78.167291-63.603597 141.777027-141.782144 141.777027z" p-id="1519"></path></svg>