<?xml version="1.0" standalone="no"?><!DOCTYPE svg PUBLIC "-//W3C//DTD SVG 1.1//EN" "http://www.w3.org/Graphics/SVG/1.1/DTD/svg11.dtd"><svg t="1513849749020" class="icon" style="" viewBox="0 0 1024 1024" version="1.1" xmlns="http://www.w3.org/2000/svg" p-id="1872" xmlns:xlink="http://www.w3.org/1999/xlink" width="32" height="32"><defs><style type="text/css"></style></defs><path d="M736.8 188.3c-1.4-0.9-2.8-1.9-4.3-2.8-0.9-0.6-2.9-1.5-2.9-1.5-7.4-3.7-15.8-5.9-24.6-5.9-30.5 0-55.2 25-55.2 55.8 0 21.8 13.2 40.1 30.3 50.2 81.9 55 135.9 149 135.9 255.7 0 169.5-136 307-304 307S208.1 709.5 208.1 539.9c0-106.7 54-200.7 135.9-255.7 17.7-10.3 30.2-28.4 30.2-50.2 0-30.8-24.8-55.8-55.2-55.8-8.8 0-17.1 2-24.6 5.8l-1.8 0.9c-2.3 1.2-4.5 2.6-6.5 4.2C172.4 263.6 97.5 392.9 97.5 539.9 97.5 771.1 283 958.5 512 958.5s414.5-187.4 414.5-418.6c0-147.5-75.6-277-189.7-351.6zM512 623.6c30.5 0 55.2-25 55.2-55.8V121.3c0-30.8-24.8-55.8-55.2-55.8-30.5 0-55.2 25-55.2 55.8v446.4c0 30.9 24.6 55.9 55.2 55.9z" p-id="1873"></path></svg>